{"glyphs":{"0":{"ha":972,"x_min":118,"x_max":854,"o":"m 296 164 q 486 71 368 71 q 680 180 600 71 q 760 481 760 289 q 682 776 760 674 q 486 879 568 867 q 292 769 372 879 q 213 466 213 660 q 296 164 213 272 m 118 465 q 118 581 118 465 q 225 826 118 697 q 486 956 332 956 q 750 834 646 956 q 854 483 854 713 q 747 124 854 253 q 486 -6 640 -6 q 228 106 325 -6 q 118 465 118 232 z "},"1":{"ha":678,"x_min":107,"x_max":417,"o":"m 108 801 q 108 835 108 818 q 107 869 107 851 l 329 919 l 417 919 l 417 0 l 329 0 l 329 851 l 108 801 z "},"2":{"ha":794,"x_min":125,"x_max":707,"o":"m 406 847 q 188 786 315 847 l 153 851 q 263 899 190 872 q 399 925 336 925 q 592 872 524 925 q 676 676 676 808 q 635 510 676 589 q 532 356 594 431 q 393 213 469 282 q 246 76 317 143 l 699 76 l 707 0 l 140 0 l 125 76 q 313 258 228 176 q 458 412 397 340 q 551 548 518 483 q 583 679 583 613 q 497 829 583 785 q 406 847 463 847 z "},"3":{"ha":778,"x_min":121,"x_max":668,"o":"m 286 72 q 574 275 574 72 q 369 447 574 438 q 264 450 314 450 l 264 513 l 321 513 q 379 511 350 513 q 476 547 433 517 q 543 615 518 576 q 568 714 568 653 q 489 835 568 801 q 413 847 458 847 q 188 786 315 847 l 164 856 q 297 908 226 890 q 418 925 367 925 q 594 874 525 925 q 663 725 663 822 q 556 529 663 600 q 497 497 526 510 q 668 279 668 458 q 447 13 668 65 q 290 -4 379 -4 q 121 18 201 -4 l 143 90 q 286 72 194 72 z "},"4":{"ha":835,"x_min":118,"x_max":718,"o":"m 558 0 l 558 194 l 142 194 l 118 271 l 558 919 l 653 919 l 653 271 l 717 271 l 718 194 l 653 194 l 653 0 l 558 0 m 558 271 l 558 781 l 211 271 l 558 271 z "},"5":{"ha":660,"x_min":38,"x_max":585,"o":"m 203 72 q 490 275 490 72 q 276 447 490 436 q 167 450 219 450 l 151 450 l 179 919 l 576 919 l 576 843 l 267 843 l 247 513 q 476 475 400 513 q 585 279 585 419 q 364 13 585 65 q 207 -4 296 -4 q 38 18 118 -4 l 60 90 q 203 72 111 72 z "},"6":{"ha":835,"x_min":97,"x_max":668,"o":"m 644 853 q 595 824 636 847 q 500 761 554 801 q 278 540 357 660 q 447 531 403 536 q 608 453 549 515 q 668 270 668 390 q 585 72 668 150 q 367 -6 501 -6 q 119 136 181 -6 q 97 272 97 186 q 132 444 97 358 q 219 601 167 531 q 607 919 346 775 l 644 853 m 236 464 q 192 263 192 367 q 246 115 192 160 q 358 71 300 71 q 518 129 463 71 q 574 272 574 188 q 533 400 574 356 q 429 454 492 444 q 236 464 392 461 z "},"7":{"ha":783,"x_min":125,"x_max":660,"o":"m 125 919 l 640 919 l 660 843 l 310 0 l 218 0 l 568 843 l 125 843 l 125 919 z "},"8":{"ha":851,"x_min":119,"x_max":739,"o":"m 276 531 q 172 711 172 588 q 428 925 172 925 q 627 868 568 925 q 686 719 686 811 q 579 510 686 594 q 739 240 739 443 q 689 94 739 160 q 428 -6 610 -6 q 169 94 246 -6 q 119 229 119 160 q 159 408 119 343 q 276 531 199 472 m 332 507 q 210 240 210 410 q 308 90 210 133 q 432 68 358 68 q 615 140 560 68 q 649 252 649 183 q 619 367 649 321 q 542 438 589 413 q 440 476 496 463 q 332 507 383 489 m 438 851 q 263 717 263 851 q 425 556 263 593 q 518 532 471 546 q 579 654 568 582 q 592 716 592 689 q 590 757 592 743 q 554 814 578 796 q 438 851 504 851 z "},"9":{"ha":835,"x_min":97,"x_max":668,"o":"m 119 61 q 169 89 128 67 q 264 150 210 111 q 486 374 408 254 q 324 382 372 374 q 97 639 97 419 q 181 842 97 764 q 399 919 264 919 q 646 778 585 919 q 668 642 668 728 q 633 469 668 556 q 547 313 599 383 q 311 89 460 196 q 158 -6 215 19 l 119 61 m 529 450 q 574 651 574 544 q 513 803 574 754 q 406 843 464 843 q 247 785 303 843 q 192 642 192 726 q 233 513 192 557 q 336 460 274 468 q 529 450 381 450 z "}," ":{"ha":415,"x_min":0,"x_max":0,"o":""},"!":{"ha":392,"x_min":153,"x_max":244,"o":"m 239 179 l 156 179 l 156 965 l 239 972 l 239 179 m 225 67 q 172 44 192 67 q 153 -4 153 22 q 175 -31 153 -31 q 222 -10 201 -31 q 243 39 243 11 q 225 67 243 67 z "},"\"":{"ha":497,"x_min":103,"x_max":344,"o":"m 178 999 q 172 951 174 978 q 167 891 169 924 q 164 838 164 858 l 111 833 q 108 880 111 835 q 103 997 104 925 l 178 999 m 344 999 q 338 951 340 978 q 333 891 336 924 q 331 838 331 858 l 278 833 q 274 880 278 835 q 269 997 271 925 l 344 999 z "},"#":{"ha":833,"x_min":32,"x_max":778,"o":"m 96 717 l 265 717 l 306 943 l 389 943 l 349 717 l 546 717 l 586 943 l 669 943 l 629 717 l 778 717 l 769 636 l 615 636 l 574 399 l 722 399 l 714 318 l 560 318 l 515 61 l 432 61 l 476 318 l 279 318 l 235 61 l 151 61 l 196 318 l 32 318 l 40 399 l 210 399 l 251 636 l 88 636 l 96 717 m 293 399 l 490 399 l 532 636 l 335 636 l 293 399 z "},"$":{"ha":810,"x_min":90,"x_max":679,"o":"m 611 738 q 425 760 478 760 l 418 760 l 418 464 q 587 400 540 432 q 656 328 633 368 q 679 231 679 289 q 606 64 679 122 q 418 -4 533 6 l 418 -139 l 369 -139 l 369 -6 q 90 72 169 6 l 119 135 q 300 72 175 88 q 367 68 336 68 l 369 68 l 369 400 q 203 460 246 433 q 139 522 161 488 q 117 611 117 557 q 185 765 117 707 q 369 832 253 824 l 369 972 l 418 972 l 418 833 q 628 808 496 831 l 611 738 m 582 161 q 596 225 596 188 q 542 331 596 290 q 418 386 507 358 l 418 71 q 582 161 543 85 m 207 619 q 306 500 207 539 q 369 478 336 488 l 369 756 q 249 711 290 746 q 207 619 207 676 z "},"%":{"ha":907,"x_min":111,"x_max":847,"o":"m 775 694 l 250 0 l 167 0 l 692 694 l 775 694 m 125 475 q 111 547 111 507 q 159 672 111 622 q 278 722 207 722 q 444 556 444 722 q 394 437 444 485 q 278 389 344 389 q 125 475 160 389 m 277 669 q 254 669 277 669 q 199 636 231 669 q 167 550 167 603 q 199 469 167 497 q 277 442 231 442 q 356 474 324 442 q 389 560 389 507 q 356 642 389 614 q 277 669 324 669 m 528 79 q 514 153 514 111 q 562 276 514 226 q 681 326 610 326 q 847 160 847 326 q 797 41 847 89 q 681 -7 747 -7 q 528 79 563 -7 m 680 274 q 657 274 680 274 q 601 240 633 274 q 569 154 569 207 q 601 74 569 101 q 680 46 633 46 q 759 78 726 46 q 792 165 792 111 q 759 246 792 218 q 680 274 726 274 z "},"&":{"ha":1303,"x_min":99,"x_max":1079,"o":"m 354 640 q 276 833 276 757 q 331 967 276 908 q 522 1040 400 1040 q 697 994 617 1040 q 749 959 729 976 q 778 936 769 942 l 728 881 q 592 954 672 929 q 519 964 560 964 q 446 947 478 964 q 367 822 367 908 q 839 232 367 663 q 953 465 915 328 l 1032 447 q 958 261 1014 360 q 900 178 935 219 q 1079 26 1018 74 l 1026 -37 q 842 119 961 13 q 469 -6 693 -6 q 196 73 293 -6 q 99 318 99 151 q 250 604 99 522 q 354 640 297 629 m 189 321 q 490 71 189 71 q 781 174 658 71 q 403 571 544 389 q 245 497 301 560 q 189 321 189 433 z "},"'":{"ha":278,"x_min":89,"x_max":164,"o":"m 89 796 l 90 875 l 90 939 q 89 993 90 972 l 164 997 q 157 817 164 907 l 156 799 l 89 796 z "},"(":{"ha":481,"x_min":89,"x_max":371,"o":"m 371 1001 q 236 805 293 958 q 179 375 179 651 q 317 -203 179 -42 q 371 -247 344 -233 l 326 -278 q 304 -268 324 -276 q 258 -236 285 -260 q 147 -50 189 -172 q 89 375 89 118 q 207 933 89 749 q 326 1042 260 1014 l 371 1001 z "},")":{"ha":556,"x_min":89,"x_max":371,"o":"m 133 1042 q 300 839 229 1001 q 371 397 371 676 q 201 -236 371 -79 q 133 -278 168 -267 l 89 -247 q 189 -136 138 -222 q 281 371 281 25 q 185 893 281 717 q 89 1001 142 971 l 133 1042 z "},"*":{"ha":772,"x_min":206,"x_max":615,"o":"m 381 1022 l 447 1021 q 436 851 447 968 l 593 911 l 615 846 q 451 803 565 829 l 556 671 l 501 631 q 447 711 471 671 q 407 776 422 751 l 313 635 l 258 674 q 317 748 288 713 q 367 807 347 783 l 206 851 l 225 917 q 386 851 293 893 q 381 1022 386 961 z "},"+":{"ha":1110,"x_min":203,"x_max":897,"o":"m 508 403 l 508 694 l 592 694 l 592 403 l 897 403 l 897 322 l 592 322 l 592 0 l 508 0 l 508 322 l 203 322 l 203 403 l 508 403 z "},",":{"ha":153,"x_min":18,"x_max":121,"o":"m 46 90 q 121 89 46 90 q 88 -119 121 14 l 82 -143 l 18 -140 q 32 -56 18 -139 q 46 56 46 26 q 46 90 46 85 z "},"-":{"ha":833,"x_min":203,"x_max":622,"o":"m 622 403 l 622 322 l 203 322 l 203 403 l 622 403 z "},".":{"ha":199,"x_min":47,"x_max":144,"o":"m 92 -11 q 80 -11 92 -11 q 58 3 68 -11 q 47 42 47 17 q 60 82 47 67 q 100 97 74 97 q 144 40 144 97 q 130 3 144 17 q 92 -11 115 -11 z "},"/":{"ha":833,"x_min":156,"x_max":681,"o":"m 681 1040 l 239 -278 l 156 -278 l 597 1040 l 681 1040 z "},":":{"ha":347,"x_min":110,"x_max":207,"o":"m 154 -11 q 142 -11 154 -11 q 120 3 131 -11 q 110 42 110 17 q 123 82 110 67 q 161 97 136 97 q 207 40 207 97 q 192 3 207 17 q 154 -11 178 -11 m 154 549 q 142 549 154 549 q 120 563 131 549 q 110 601 110 576 q 123 642 110 626 q 161 657 136 657 q 207 600 207 657 q 192 563 207 576 q 154 549 178 549 z "},";":{"ha":322,"x_min":94,"x_max":207,"o":"m 176 89 q 160 -63 176 14 q 143 -142 143 -140 l 94 -142 q 111 -63 94 -140 q 128 89 128 14 l 176 89 m 154 549 q 142 549 154 549 q 120 563 131 549 q 110 601 110 576 q 123 642 110 626 q 161 657 136 657 q 207 600 207 657 q 192 563 207 576 q 154 549 178 549 z "},"<":{"ha":790,"x_min":139,"x_max":632,"o":"m 251 415 q 632 213 340 369 l 628 139 l 139 417 l 628 694 l 632 622 l 251 415 z "},"=":{"ha":1026,"x_min":203,"x_max":833,"o":"m 833 532 l 833 451 l 203 451 l 203 532 l 833 532 m 833 224 l 833 143 l 203 143 l 203 224 l 833 224 z "},">":{"ha":790,"x_min":139,"x_max":632,"o":"m 139 213 q 328 315 235 264 q 518 415 422 365 l 139 622 l 143 694 l 632 417 l 143 139 l 139 213 z "},"?":{"ha":694,"x_min":81,"x_max":575,"o":"m 81 886 q 329 972 192 972 q 506 914 438 972 q 575 767 575 856 q 533 650 575 706 q 392 493 492 594 q 257 178 257 361 l 194 178 q 300 495 194 385 q 445 658 406 606 q 485 767 485 710 q 442 862 485 824 q 324 900 399 900 q 113 832 213 900 l 81 886 m 229 -47 q 176 8 176 -47 q 191 52 176 36 q 233 68 206 68 q 282 8 282 68 q 267 -32 282 -17 q 229 -47 253 -47 z "},"@":{"ha":1486,"x_min":118,"x_max":1351,"o":"m 910 467 q 751 618 910 618 q 508 553 639 618 l 483 619 q 519 636 493 624 q 750 699 650 696 q 890 676 840 699 q 969 612 939 653 q 1000 497 1000 571 l 1000 65 q 1019 31 1001 40 q 1049 22 1036 22 q 1081 26 1063 22 q 1133 51 1100 29 q 1194 114 1167 74 q 1261 358 1261 210 q 1106 785 1261 639 q 743 913 968 913 q 530 867 628 913 q 360 742 432 821 q 249 555 289 663 q 208 313 208 447 q 249 74 208 178 q 361 -94 290 -29 q 736 -218 500 -218 q 938 -174 844 -218 l 978 -243 q 708 -299 879 -299 q 491 -263 601 -299 q 297 -153 381 -228 q 118 331 118 11 q 167 598 118 476 q 299 807 215 719 q 498 944 383 894 q 742 993 613 993 q 1172 842 1010 993 q 1351 368 1351 675 q 1242 43 1351 161 q 1035 -54 1151 -54 q 949 -26 985 -54 q 910 53 914 3 q 667 -6 776 -6 q 469 140 483 -6 q 469 167 469 149 q 479 213 469 186 q 519 270 489 240 q 617 317 549 300 q 910 350 686 335 l 910 467 m 692 58 q 910 106 793 58 l 910 304 q 640 257 692 272 q 553 156 553 228 q 603 75 553 100 q 692 58 635 58 z "},"A":{"ha":933,"x_min":63,"x_max":863,"o":"m 669 257 l 242 257 l 153 0 l 63 0 l 414 972 l 499 972 l 863 0 l 761 0 l 669 257 m 265 326 l 644 326 l 451 867 l 265 326 z "},"B":{"ha":732,"x_min":104,"x_max":669,"o":"m 515 558 q 669 301 669 501 q 647 144 669 200 q 581 57 624 89 q 333 0 501 0 l 104 0 l 104 972 l 313 972 q 590 861 532 972 q 611 767 611 822 q 583 653 611 711 q 515 558 554 594 m 199 504 l 199 76 l 326 76 q 508 111 456 76 q 575 282 575 154 q 453 492 575 456 q 361 504 413 504 l 199 504 m 449 575 q 517 750 517 664 q 463 866 517 836 q 306 896 408 896 l 199 896 l 199 581 l 368 581 q 449 575 410 581 z "},"C":{"ha":822,"x_min":90,"x_max":767,"o":"m 683 869 q 535 897 613 897 q 281 782 378 897 q 185 444 185 667 q 286 133 185 222 q 479 71 356 71 q 638 89 558 71 q 747 124 718 107 l 767 56 q 553 0 706 15 q 459 -6 508 -6 q 343 10 410 -6 q 219 75 276 26 q 90 440 90 185 q 212 835 90 696 q 528 975 333 975 q 714 932 636 975 q 760 899 743 917 l 760 697 l 690 693 l 683 869 z "},"D":{"ha":865,"x_min":111,"x_max":775,"o":"m 111 972 l 361 972 q 742 728 653 972 q 775 494 775 639 q 743 249 775 349 q 653 94 711 150 q 512 19 594 39 q 326 0 429 0 l 111 0 l 111 972 m 206 896 l 206 76 l 319 76 q 458 89 392 76 q 681 501 681 128 q 583 811 681 711 q 354 896 499 896 l 206 896 z "},"E":{"ha":700,"x_min":111,"x_max":644,"o":"m 610 889 l 206 889 l 206 524 l 581 524 l 574 440 l 206 440 l 206 83 l 644 83 l 638 0 l 111 0 l 111 972 l 617 972 l 610 889 z "},"F":{"ha":672,"x_min":111,"x_max":617,"o":"m 610 889 l 206 889 l 206 524 l 581 524 l 574 440 l 206 440 l 206 0 l 111 0 l 111 972 l 617 972 l 610 889 z "},"G":{"ha":874,"x_min":90,"x_max":774,"o":"m 733 836 q 603 890 697 872 q 513 897 568 897 q 395 871 457 897 q 286 789 333 844 q 185 444 185 667 q 286 133 185 222 q 470 71 356 71 q 690 100 585 71 l 697 431 l 774 431 l 774 56 q 553 0 713 17 q 459 -6 508 -6 q 343 10 410 -6 q 219 75 276 26 q 90 440 90 185 q 213 835 90 696 q 528 975 335 975 l 572 972 q 706 940 660 964 q 769 899 753 917 l 733 836 z "},"H":{"ha":856,"x_min":104,"x_max":751,"o":"m 104 0 l 104 972 l 192 972 l 192 524 l 664 524 l 664 972 l 751 972 l 751 0 l 664 0 l 664 440 l 192 440 l 192 0 l 104 0 z "},"I":{"ha":483,"x_min":97,"x_max":358,"o":"m 358 0 l 97 0 l 97 67 l 181 76 l 181 894 l 104 904 l 104 972 l 351 972 l 351 904 l 275 894 l 275 76 l 358 67 l 358 0 z "},"J":{"ha":314,"x_min":-44,"x_max":203,"o":"m -44 -290 q 92 -87 51 -200 q 107 0 107 -44 l 107 972 l 201 972 l 201 0 q 201 -8 201 -4 q 60 -292 201 -161 q 1 -344 25 -324 l -44 -290 z "},"K":{"ha":771,"x_min":111,"x_max":715,"o":"m 111 0 l 111 972 l 206 972 l 206 508 l 540 972 l 649 972 l 308 515 l 715 0 l 607 0 l 206 508 l 206 0 l 111 0 z "},"L":{"ha":707,"x_min":111,"x_max":644,"o":"m 638 0 l 111 0 l 111 972 l 206 972 l 206 83 l 644 83 l 638 0 z "},"M":{"ha":1114,"x_min":100,"x_max":1003,"o":"m 100 0 l 100 972 l 194 972 l 551 261 l 908 972 l 1003 972 l 1003 0 l 915 0 l 915 811 l 599 182 l 504 182 l 188 811 l 188 0 l 100 0 z "},"N":{"ha":938,"x_min":100,"x_max":836,"o":"m 735 0 l 181 847 l 188 0 l 100 0 l 100 972 l 201 972 l 754 125 l 749 972 l 836 972 l 836 0 l 735 0 z "},"O":{"ha":1000,"x_min":90,"x_max":910,"o":"m 500 978 q 910 483 910 978 q 793 126 910 257 q 500 -6 676 -6 q 210 97 313 -6 q 90 465 90 219 q 208 844 90 711 q 500 978 325 978 m 278 164 q 500 78 354 78 q 726 187 638 78 q 815 500 815 296 q 722 807 815 704 q 500 894 644 894 q 274 785 364 894 q 185 470 185 675 q 278 164 185 265 z "},"P":{"ha":739,"x_min":111,"x_max":649,"o":"m 111 0 l 111 972 l 313 972 q 560 918 483 972 q 649 704 649 856 q 454 396 649 451 q 313 378 392 378 l 206 378 l 206 0 l 111 0 m 206 896 l 206 454 l 306 454 q 492 509 431 454 q 554 688 554 564 q 492 854 554 813 q 306 896 431 896 l 206 896 z "},"Q":{"ha":1000,"x_min":90,"x_max":910,"o":"m 500 978 q 910 483 910 978 q 815 154 910 282 q 571 0 719 26 q 792 -269 610 -137 l 710 -278 q 525 -92 597 -200 q 485 -6 497 -50 q 121 253 204 -1 q 90 472 90 346 q 208 844 90 711 q 500 978 325 978 m 278 164 q 500 78 354 78 q 726 187 638 78 q 815 500 815 296 q 722 807 815 704 q 500 894 644 894 q 274 785 364 894 q 185 470 185 675 q 278 164 185 265 z "},"R":{"ha":783,"x_min":111,"x_max":721,"o":"m 649 711 q 511 443 649 511 l 721 0 l 619 0 l 422 414 q 313 406 372 406 l 206 406 l 206 0 l 111 0 l 111 972 l 313 972 q 560 919 482 972 q 649 711 649 860 m 206 896 l 206 482 l 306 482 q 492 532 429 482 q 554 706 554 582 q 410 889 554 864 q 306 896 364 896 l 206 896 z "},"S":{"ha":774,"x_min":56,"x_max":718,"o":"m 647 947 l 631 868 q 449 892 524 892 q 179 728 179 892 q 219 632 179 665 q 319 577 258 599 q 449 538 379 556 q 578 492 518 521 q 718 279 718 422 q 611 63 718 136 q 369 -1 519 -1 q 56 83 183 -1 l 92 154 q 199 105 129 128 q 333 82 268 82 q 535 124 461 82 q 624 271 624 175 q 584 381 624 342 q 484 445 544 421 q 354 487 424 469 q 225 531 285 504 q 85 713 85 592 q 168 904 85 833 q 404 975 251 975 q 647 947 522 975 z "},"T":{"ha":761,"x_min":63,"x_max":699,"o":"m 338 0 l 338 889 l 63 889 l 69 972 l 699 972 l 692 889 l 425 889 l 425 0 l 338 0 z "},"U":{"ha":913,"x_min":111,"x_max":813,"o":"m 813 972 l 813 417 q 711 90 813 200 q 463 -6 621 -6 q 222 69 306 -6 q 111 417 111 171 l 111 972 l 206 972 l 206 418 q 289 133 206 217 q 469 71 351 71 q 704 256 646 71 q 725 418 725 321 l 725 972 l 813 972 z "},"V":{"ha":922,"x_min":63,"x_max":856,"o":"m 472 106 l 765 972 l 856 972 l 511 0 l 419 0 l 63 972 l 157 972 l 472 106 z "},"W":{"ha":1282,"x_min":63,"x_max":1206,"o":"m 885 136 l 1115 972 l 1206 972 l 921 0 l 836 0 l 626 828 l 397 0 l 311 0 l 63 972 l 150 972 l 361 140 l 590 972 l 668 972 l 885 136 z "},"X":{"ha":851,"x_min":60,"x_max":792,"o":"m 413 447 l 157 0 l 60 0 l 369 518 l 83 972 l 192 972 l 431 575 l 658 972 l 756 972 l 474 504 l 792 0 l 683 0 l 413 447 z "},"Y":{"ha":911,"x_min":63,"x_max":849,"o":"m 464 404 l 751 972 l 849 972 l 508 326 l 508 0 l 421 0 l 421 328 l 63 972 l 164 972 l 464 404 z "},"Z":{"ha":822,"x_min":56,"x_max":767,"o":"m 85 972 l 696 972 l 710 896 l 163 76 l 756 76 l 767 0 l 69 0 l 56 76 l 601 896 l 86 896 l 85 972 z "},"[":{"ha":597,"x_min":149,"x_max":417,"o":"m 192 -278 l 149 -278 l 149 1042 l 239 1042 l 239 1040 l 417 1040 l 417 960 l 239 960 l 239 -199 l 417 -199 l 417 -279 l 192 -279 l 192 -278 z "},"\\":{"ha":833,"x_min":149,"x_max":688,"o":"m 590 -278 l 149 1040 l 246 1040 l 688 -278 l 590 -278 z "},"]":{"ha":597,"x_min":149,"x_max":417,"o":"m 374 -279 l 149 -279 l 149 -199 l 326 -199 l 326 960 l 149 960 l 149 1040 l 326 1040 l 326 1042 l 417 1042 l 417 -278 l 374 -278 l 374 -279 z "},"^":{"ha":778,"x_min":189,"x_max":564,"o":"m 519 417 q 443 512 497 447 q 375 596 389 576 q 291 492 321 528 q 233 417 261 456 l 189 424 q 291 543 221 463 q 375 643 361 624 q 460 544 386 628 q 564 424 535 461 l 519 417 z "},"_":{"ha":694,"x_min":110,"x_max":601,"o":"m 601 81 l 601 0 l 110 0 l 110 81 l 601 81 z "},"`":{"ha":415,"x_min":99,"x_max":326,"o":"m 263 826 l 99 1032 l 182 1042 l 326 838 l 263 826 z "},"a":{"ha":642,"x_min":56,"x_max":586,"o":"m 71 619 q 336 699 222 694 q 476 676 426 699 q 556 612 525 653 q 586 497 586 571 l 586 0 l 496 0 l 496 53 q 251 -6 306 -6 q 247 -6 249 -6 q 76 71 122 -6 q 58 125 60 99 q 56 169 56 151 q 94 259 56 219 q 188 313 133 299 q 496 354 279 336 l 496 467 q 338 618 496 618 q 96 553 226 618 l 71 619 m 140 158 q 278 58 140 58 q 496 106 388 58 l 496 304 q 228 257 279 274 q 140 158 140 229 z "},"b":{"ha":706,"x_min":83,"x_max":636,"o":"m 174 639 q 360 707 256 707 q 608 550 538 707 q 636 385 636 486 q 538 99 636 197 q 282 0 439 0 q 142 13 190 0 q 83 32 94 25 l 83 1035 l 174 1042 l 174 639 m 174 590 l 174 78 q 261 68 214 68 q 473 149 400 68 q 546 375 546 229 q 472 583 546 521 q 339 626 421 626 q 174 590 257 626 z "},"c":{"ha":679,"x_min":69,"x_max":624,"o":"m 543 601 q 426 619 486 619 q 233 542 306 619 q 160 322 160 464 q 389 75 160 75 q 578 106 481 75 q 601 114 597 111 l 624 39 q 447 -3 575 10 q 371 -6 411 -6 q 176 53 253 -6 q 69 318 69 133 q 169 602 69 503 q 425 701 268 701 q 531 688 475 701 q 618 647 588 675 l 618 465 l 550 456 l 543 601 z "},"d":{"ha":743,"x_min":97,"x_max":688,"o":"m 442 701 q 597 653 524 701 l 597 1035 l 688 1042 l 688 32 l 681 32 q 537 4 638 14 q 397 -6 436 -6 q 204 53 281 -6 q 97 318 97 133 q 197 602 97 503 q 442 701 296 701 m 597 593 q 461 619 528 619 q 260 542 333 619 q 188 321 188 464 q 267 119 188 178 q 410 75 324 75 q 597 89 497 75 l 597 593 z "},"e":{"ha":717,"x_min":76,"x_max":668,"o":"m 167 319 q 400 75 167 75 q 581 101 499 75 q 610 113 601 108 l 631 39 q 454 -3 582 10 q 378 -6 418 -6 q 183 53 261 -6 q 76 317 76 132 q 173 601 76 501 q 407 700 269 700 q 614 611 544 700 q 667 424 667 540 q 664 365 667 396 l 168 365 q 167 342 167 354 l 167 319 m 413 614 q 265 562 326 614 q 181 428 204 510 l 585 428 q 465 607 578 582 q 413 614 440 614 z "},"f":{"ha":429,"x_min":56,"x_max":438,"o":"m 133 858 q 342 1047 133 1047 q 438 1036 396 1047 l 424 958 q 344 965 376 965 q 285 954 311 965 q 224 826 224 926 l 224 694 l 396 694 l 396 614 l 224 614 l 224 0 l 133 0 l 133 614 l 56 614 l 68 694 l 133 694 l 133 858 z "},"g":{"ha":793,"x_min":56,"x_max":724,"o":"m 197 268 q 94 461 94 319 q 175 639 94 578 q 381 700 256 700 q 463 693 414 700 l 724 700 l 721 647 l 569 647 q 646 476 646 590 q 569 299 646 361 q 372 238 493 238 q 243 251 294 238 q 217 193 217 226 q 269 125 217 146 q 392 94 321 104 q 618 36 549 74 q 718 -135 718 -19 q 608 -306 718 -250 q 407 -347 525 -347 q 225 -329 289 -347 q 57 -149 57 -281 q 206 75 57 -17 q 147 175 147 118 q 197 268 147 232 m 628 -133 q 508 -8 628 -43 q 389 15 475 1 q 254 49 303 29 q 147 -124 147 -40 q 158 -183 147 -160 q 197 -225 169 -207 q 383 -267 258 -267 q 606 -197 547 -267 q 628 -133 628 -171 m 551 479 q 376 626 551 626 q 239 588 293 626 q 185 472 185 550 q 224 352 185 393 q 355 311 263 311 q 499 356 447 311 q 551 479 551 400 z "},"h":{"ha":690,"x_min":97,"x_max":635,"o":"m 188 615 q 399 699 297 694 q 531 678 485 699 q 606 619 576 657 q 635 511 635 581 l 635 0 l 544 0 l 544 488 q 522 567 544 539 q 386 618 478 618 q 188 560 296 614 l 188 0 l 97 0 l 97 1035 l 188 1042 l 188 615 z "},"i":{"ha":303,"x_min":97,"x_max":219,"o":"m 203 701 l 203 0 l 113 0 l 113 694 l 203 701 m 154 881 q 140 881 154 881 q 112 899 126 881 q 97 944 97 917 q 113 990 97 972 q 157 1007 129 1007 q 202 990 185 1007 q 219 942 219 972 q 201 896 219 911 q 154 881 182 881 z "},"j":{"ha":318,"x_min":-22,"x_max":235,"o":"m -22 -290 q 114 -86 74 -201 q 129 0 129 -43 l 129 694 l 219 701 l 219 0 q 219 -8 219 -4 q 144 -219 219 -119 q 78 -292 113 -261 q 19 -344 43 -324 l -22 -290 m 171 881 q 157 881 171 881 q 128 899 143 881 q 113 944 113 917 q 129 990 113 972 q 174 1007 146 1007 q 218 990 201 1007 q 235 942 235 972 q 217 896 235 911 q 171 881 199 881 z "},"k":{"ha":658,"x_min":97,"x_max":603,"o":"m 188 0 l 97 0 l 97 1035 l 188 1042 l 188 0 m 467 694 l 575 694 l 278 369 l 603 0 l 501 -7 l 188 369 l 467 694 z "},"l":{"ha":243,"x_min":97,"x_max":188,"o":"m 97 0 l 97 1035 l 188 1042 l 188 0 l 97 0 z "},"m":{"ha":1094,"x_min":83,"x_max":997,"o":"m 342 618 q 174 567 264 614 l 174 0 l 83 0 l 83 694 l 174 701 l 174 624 q 354 699 267 694 q 557 625 501 699 q 761 699 663 694 q 892 678 846 699 q 967 619 938 657 q 997 511 997 581 l 997 0 l 907 0 l 907 488 q 883 567 907 539 q 761 618 840 618 q 583 568 678 618 q 590 511 590 540 l 590 0 l 500 0 l 500 488 q 478 567 500 539 q 342 618 433 618 z "},"n":{"ha":704,"x_min":83,"x_max":607,"o":"m 174 618 q 371 699 278 694 q 501 678 456 699 q 577 619 547 657 q 607 511 607 581 l 607 0 l 517 0 l 517 488 q 494 567 517 539 q 358 618 450 618 q 174 561 271 614 l 174 0 l 83 0 l 83 694 l 174 701 l 174 618 z "},"o":{"ha":799,"x_min":69,"x_max":729,"o":"m 94 178 q 69 333 69 244 q 165 602 69 504 q 406 700 261 700 q 703 517 632 700 q 729 361 729 450 q 633 92 729 190 q 393 -6 538 -6 q 94 178 167 -6 m 160 343 q 160 279 160 343 q 226 145 160 215 q 396 75 292 75 q 569 149 500 75 q 639 351 639 224 q 574 549 639 479 q 403 619 508 619 q 229 545 299 619 q 160 343 160 471 z "},"p":{"ha":719,"x_min":97,"x_max":650,"o":"m 550 97 q 448 28 504 51 q 351 3 392 6 q 272 0 311 0 q 188 7 233 0 l 188 -340 l 97 -347 l 97 658 q 191 688 128 668 q 326 707 254 707 q 449 695 397 707 q 546 650 501 683 q 650 383 650 569 q 550 97 650 197 m 188 78 q 276 68 229 68 q 486 149 413 68 q 560 375 560 229 q 485 583 560 521 q 349 626 432 626 q 188 603 267 626 l 188 78 z "},"q":{"ha":757,"x_min":83,"x_max":674,"o":"m 583 14 q 408 -6 474 -6 q 83 319 83 -6 q 183 602 83 503 q 443 701 282 701 q 647 669 543 701 q 674 661 672 663 l 674 -342 l 583 -349 l 583 14 m 583 596 q 439 619 472 618 q 247 542 319 619 q 174 321 174 464 q 253 119 174 178 q 397 75 310 75 q 583 89 483 75 l 583 596 z "},"r":{"ha":482,"x_min":83,"x_max":482,"o":"m 446 597 q 399 610 424 610 q 371 608 374 610 q 265 570 318 608 q 174 485 211 532 l 174 0 l 83 0 l 83 694 l 174 701 l 174 546 q 261 638 225 611 q 389 690 328 688 q 419 692 397 692 q 482 681 442 692 l 446 597 z "},"s":{"ha":593,"x_min":56,"x_max":538,"o":"m 478 603 q 342 619 428 619 q 208 589 256 619 q 161 513 161 558 q 189 447 161 468 q 258 412 217 426 q 349 383 300 397 q 440 347 399 369 q 538 199 538 297 q 470 47 538 100 q 274 -6 403 -6 q 148 8 208 -6 q 56 44 88 21 l 86 118 q 215 78 118 90 q 278 74 246 74 q 399 103 350 74 q 447 194 447 133 q 419 260 447 236 q 350 299 392 283 q 259 328 308 315 q 168 360 210 340 q 99 413 126 381 q 71 501 71 446 q 140 646 71 592 q 326 700 210 700 q 386 697 356 700 q 442 690 417 693 l 500 681 l 478 603 z "},"t":{"ha":461,"x_min":56,"x_max":401,"o":"m 401 25 q 311 0 376 0 q 188 47 219 0 q 133 186 133 99 l 133 614 l 56 614 l 68 694 l 133 694 l 133 832 l 224 840 l 224 694 l 385 694 l 385 614 l 224 614 l 224 164 q 307 83 224 83 q 385 100 343 83 l 401 25 z "},"u":{"ha":718,"x_min":97,"x_max":621,"o":"m 261 89 q 358 78 292 78 q 531 132 425 78 l 531 694 l 621 701 l 621 0 l 531 0 l 531 75 q 321 -4 428 -4 q 128 75 188 -4 q 97 183 97 114 l 97 694 l 188 701 l 188 207 q 261 89 188 121 z "},"v":{"ha":733,"x_min":56,"x_max":676,"o":"m 56 694 l 157 701 l 358 107 l 576 694 l 676 701 l 396 0 l 313 0 l 56 694 z "},"w":{"ha":1124,"x_min":56,"x_max":1068,"o":"m 554 558 l 368 0 l 285 0 l 56 694 l 157 701 l 333 114 l 514 694 l 601 701 l 757 113 l 961 694 l 1068 701 l 801 0 l 718 0 l 554 558 z "},"x":{"ha":683,"x_min":36,"x_max":619,"o":"m 325 289 l 140 0 l 36 0 l 276 365 l 65 694 l 172 701 l 342 431 l 507 694 l 611 694 l 390 353 l 619 0 l 511 -7 l 325 289 z "},"y":{"ha":786,"x_min":56,"x_max":728,"o":"m 56 694 l 157 701 l 364 65 l 631 694 l 728 694 l 267 -347 l 182 -347 l 335 0 l 303 0 l 56 694 z "},"z":{"ha":694,"x_min":56,"x_max":639,"o":"m 90 694 l 597 694 l 610 614 l 176 81 l 628 81 l 639 0 l 68 0 l 56 81 l 494 614 l 92 614 l 90 694 z "},"{":{"ha":629,"x_min":85,"x_max":490,"o":"m 246 133 q 94 307 246 299 l 85 307 l 85 386 q 246 525 246 386 l 246 851 q 472 1039 246 1039 q 490 1039 481 1039 l 490 960 q 471 960 485 960 q 383 935 421 960 q 329 821 329 899 l 329 529 q 250 346 329 400 q 329 164 329 292 l 329 -128 q 383 -243 329 -207 q 478 -267 418 -267 q 490 -267 485 -267 l 490 -346 q 458 -347 478 -347 q 331 -319 383 -347 q 246 -158 246 -275 l 246 133 z "},"|":{"ha":394,"x_min":156,"x_max":239,"o":"m 239 1040 l 239 -278 l 156 -278 l 156 1040 l 239 1040 z "},"}":{"ha":629,"x_min":85,"x_max":490,"o":"m 329 525 q 490 386 329 386 l 490 307 l 481 307 q 385 278 413 303 q 329 133 329 228 l 329 -158 q 244 -319 329 -275 q 113 -347 192 -347 q 85 -346 97 -347 l 85 -267 q 104 -267 90 -267 q 192 -243 157 -267 q 246 -128 246 -207 l 246 164 q 325 346 246 292 q 246 529 246 400 l 246 821 q 192 935 246 899 q 96 960 154 960 q 85 960 90 960 l 85 1039 q 103 1039 94 1039 q 329 851 329 1039 l 329 525 z "},"~":{"ha":817,"x_min":169,"x_max":678,"o":"m 300 478 q 217 428 226 478 l 169 438 q 293 528 189 528 q 436 505 344 528 q 556 482 528 482 q 597 486 583 482 q 629 536 619 493 l 678 526 q 597 431 658 439 q 564 429 586 429 q 447 453 542 429 q 300 478 353 478 z "},"¡":{"ha":392,"x_min":150,"x_max":242,"o":"m 236 515 l 153 515 l 153 -271 l 236 -278 l 236 515 m 222 628 q 169 650 189 628 q 150 699 150 672 q 172 725 150 725 q 219 704 199 725 q 240 656 240 683 q 222 628 240 628 z "},"¢":{"ha":679,"x_min":69,"x_max":624,"o":"m 543 601 q 508 611 538 603 q 424 619 479 619 l 408 619 l 408 75 q 578 106 496 79 q 601 114 597 111 l 624 39 q 525 9 596 22 q 408 -4 454 -4 l 408 -139 l 367 -139 l 367 -6 q 176 53 249 -1 q 69 318 69 133 q 169 603 69 503 q 367 697 250 683 l 367 833 l 408 833 l 408 701 q 443 701 414 701 q 530 688 472 701 q 618 647 588 675 l 618 479 l 550 469 l 543 601 m 238 119 q 305 85 271 93 q 367 75 339 78 l 367 614 q 306 594 342 608 q 233 543 269 581 q 160 322 160 464 q 238 119 160 179 z "},"£":{"ha":697,"x_min":71,"x_max":599,"o":"m 288 200 q 231 74 288 103 l 592 74 l 599 0 l 118 0 l 108 74 l 121 74 q 189 125 167 78 q 204 202 204 156 q 188 299 204 249 q 163 389 172 350 l 71 389 l 71 435 l 151 435 q 139 548 139 519 q 140 606 139 576 q 186 753 144 696 q 352 829 242 829 q 526 774 463 829 l 494 715 q 369 756 450 756 q 256 707 289 756 q 222 550 222 658 q 231 435 222 493 l 463 435 l 463 389 l 242 389 l 251 360 q 272 296 257 343 q 288 200 288 249 z "},"¤":{"ha":833,"x_min":124,"x_max":715,"o":"m 186 450 q 139 617 139 518 q 192 794 139 717 l 125 861 l 182 918 l 249 851 q 425 903 328 903 q 590 854 522 903 l 657 921 l 715 863 l 647 794 q 694 630 694 728 q 642 458 694 532 l 715 385 l 658 328 l 585 400 q 410 347 510 347 q 246 393 311 347 l 182 329 l 124 388 l 186 450 m 222 619 q 222 576 222 619 q 278 481 222 533 q 417 428 333 428 q 555 486 499 428 q 611 631 611 544 q 556 769 611 717 q 417 822 500 822 q 278 764 335 822 q 222 619 222 706 z "},"¦":{"ha":394,"x_min":156,"x_max":239,"o":"m 239 278 l 239 -278 l 156 -278 l 156 278 l 239 278 m 156 556 l 156 1040 l 239 1040 l 239 556 l 156 556 z "},"§":{"ha":694,"x_min":125,"x_max":569,"o":"m 125 833 l 215 833 q 243 728 217 765 q 309 668 269 692 q 394 626 349 644 q 478 579 439 608 q 569 364 569 513 l 479 364 q 453 473 479 433 q 388 537 426 513 q 302 580 349 561 q 217 627 256 599 q 151 703 178 656 q 125 833 125 750 m 125 501 l 215 501 q 243 396 217 433 q 309 335 269 358 q 394 293 349 311 q 478 244 439 275 q 569 32 569 176 l 479 32 q 453 141 479 101 q 388 205 426 181 q 302 247 349 229 q 217 294 256 265 q 125 501 125 361 z "},"¨":{"ha":694,"x_min":151,"x_max":558,"o":"m 203 792 q 191 792 203 792 q 165 808 179 792 q 151 849 151 824 q 166 888 151 874 q 205 903 181 903 q 244 888 229 903 q 258 847 258 874 q 243 806 258 819 q 203 792 228 792 m 502 792 q 490 792 502 792 q 465 808 478 792 q 451 849 451 824 q 465 888 451 874 q 503 903 479 903 q 558 847 558 903 q 542 806 558 819 q 502 792 526 792 z "},"©":{"ha":1157,"x_min":118,"x_max":976,"o":"m 118 422 q 118 523 118 422 q 242 747 118 625 q 547 868 365 868 q 856 755 736 868 q 976 439 976 642 q 853 115 976 236 q 547 -7 729 -7 q 239 106 360 -7 q 118 422 118 218 m 160 426 q 160 336 160 426 q 270 140 160 247 q 547 32 381 32 q 822 144 710 32 q 935 436 935 257 q 823 722 935 615 q 547 829 711 829 q 272 717 385 829 q 160 426 160 604 m 688 203 q 519 169 635 169 q 389 213 439 169 q 318 413 318 274 q 384 628 318 551 q 557 704 450 704 q 628 693 592 704 q 683 663 665 682 l 683 553 l 646 550 l 642 647 q 561 663 606 663 q 423 599 475 663 q 371 414 371 535 q 425 244 371 293 q 523 211 464 211 q 624 222 582 211 q 678 240 667 233 l 688 203 z "},"ª":{"ha":443,"x_min":99,"x_max":292,"o":"m 194 947 q 292 874 292 947 l 292 694 l 258 694 l 258 714 q 171 693 213 693 q 100 754 100 693 q 150 808 100 794 q 258 822 182 817 l 258 863 q 201 918 258 918 q 144 908 171 918 q 114 894 118 897 l 104 918 q 117 924 108 919 q 152 938 126 929 q 194 947 178 947 m 131 751 q 176 715 131 715 q 258 732 222 715 l 258 804 q 161 788 188 794 q 131 751 131 776 z "},"«":{"ha":964,"x_min":104,"x_max":833,"o":"m 478 122 l 104 360 l 478 597 l 478 531 l 194 360 l 478 189 l 478 122 m 833 122 l 460 360 l 833 597 l 833 531 l 550 360 l 833 189 l 833 122 z "},"¬":{"ha":833,"x_min":347,"x_max":694,"o":"m 410 368 l 410 403 l 694 403 l 694 268 l 347 268 l 347 368 l 410 368 z "},"®":{"ha":832,"x_min":125,"x_max":699,"o":"m 125 687 q 125 755 125 687 q 207 904 125 822 q 411 986 289 986 q 619 910 539 986 q 699 699 699 835 q 616 482 699 563 q 411 401 533 401 q 206 476 286 401 q 125 687 125 551 m 160 690 q 160 628 160 690 q 231 500 160 567 q 410 433 301 433 q 591 504 518 433 q 664 696 664 575 q 592 885 664 817 q 413 954 521 954 q 233 883 306 954 q 160 690 160 813 m 426 665 q 390 663 410 663 l 354 663 l 354 528 l 324 528 l 324 851 l 390 851 q 472 834 443 851 q 501 757 501 817 q 456 675 501 697 l 526 528 l 492 528 l 426 665 m 354 826 l 354 689 l 388 689 q 449 704 428 689 q 471 760 471 719 q 449 814 471 801 q 388 826 426 826 l 354 826 z "},"¯":{"ha":694,"x_min":139,"x_max":556,"o":"m 556 844 l 556 833 l 139 833 l 139 844 l 556 844 z "},"°":{"ha":525,"x_min":125,"x_max":399,"o":"m 263 713 q 234 713 263 713 q 165 745 206 713 q 125 844 125 778 q 165 949 125 911 q 263 986 206 986 q 359 953 319 986 q 399 854 399 921 q 359 750 399 788 q 263 713 319 713 m 261 947 q 194 918 221 947 q 167 845 167 889 q 194 776 167 801 q 261 751 221 751 q 329 780 301 751 q 357 853 357 808 q 329 922 357 897 q 261 947 301 947 z "},"±":{"ha":1157,"x_min":203,"x_max":897,"o":"m 508 681 l 508 972 l 592 972 l 592 681 l 897 681 l 897 600 l 592 600 l 592 278 l 508 278 l 508 600 l 203 600 l 203 681 l 508 681 m 897 171 l 897 90 l 203 90 l 203 171 l 897 171 z "},"²":{"ha":328,"x_min":44,"x_max":263,"o":"m 144 1010 q 68 988 118 1010 l 54 1013 q 151 1039 107 1039 q 223 1017 194 1039 q 251 953 251 994 q 236 883 251 913 q 197 825 221 853 q 145 772 174 797 q 90 721 117 746 l 260 721 l 263 692 l 50 692 l 44 721 q 167 844 142 815 q 217 944 217 903 q 144 1010 217 1010 z "},"³":{"ha":417,"x_min":126,"x_max":326,"o":"m 186 721 q 292 794 292 721 q 217 858 292 857 q 178 860 196 860 l 178 882 l 221 882 q 254 894 238 882 q 289 956 289 918 q 277 988 289 972 q 233 1004 265 1004 q 150 982 200 1004 l 142 1007 q 231 1033 189 1033 q 298 1015 272 1033 q 324 960 324 996 q 264 876 324 904 q 326 797 326 860 q 189 693 326 693 q 126 701 153 693 l 135 728 q 186 721 153 721 z "},"´":{"ha":417,"x_min":106,"x_max":333,"o":"m 333 1032 l 168 826 l 106 838 l 250 1042 l 333 1032 z "},"µ":{"ha":718,"x_min":97,"x_max":621,"o":"m 261 89 q 358 78 292 78 q 531 132 425 78 l 531 694 l 621 701 l 621 0 l 531 0 l 531 75 q 321 -4 428 -4 q 196 18 250 -4 q 188 22 192 21 l 188 -347 l 97 -347 l 97 694 l 188 701 l 188 207 q 261 89 188 121 z "},"¶":{"ha":849,"x_min":160,"x_max":636,"o":"m 474 972 l 474 0 l 390 0 l 390 499 q 224 560 289 499 q 160 728 160 622 q 226 903 160 835 q 390 972 293 972 l 474 972 m 636 972 l 636 0 l 622 0 l 622 972 l 636 972 z "},"·":{"ha":189,"x_min":47,"x_max":138,"o":"m 92 483 q 47 531 47 483 q 60 569 47 554 q 96 583 72 583 q 138 531 138 583 q 124 496 138 508 q 92 483 111 483 z "},"¸":{"ha":361,"x_min":81,"x_max":236,"o":"m 179 0 l 224 8 q 235 -36 235 -19 q 208 -121 235 -85 q 94 -193 168 -175 l 81 -164 q 163 -117 140 -144 q 185 -60 185 -89 q 175 0 185 -32 l 179 0 z "},"¹":{"ha":382,"x_min":121,"x_max":236,"o":"m 121 1021 l 203 1040 l 236 1040 l 236 694 l 203 694 l 203 1015 l 121 996 l 121 1021 z "},"º":{"ha":532,"x_min":124,"x_max":381,"o":"m 252 696 q 225 696 252 696 q 161 726 199 696 q 124 827 124 757 q 162 934 124 897 q 253 971 200 971 q 344 941 307 971 q 381 841 381 911 q 343 733 381 771 q 252 696 306 696 m 253 940 q 234 940 253 940 q 188 912 215 940 q 160 831 160 883 q 186 753 160 779 q 251 728 213 728 q 318 756 290 728 q 346 836 346 785 q 319 914 346 888 q 253 940 292 940 z "},"»":{"ha":964,"x_min":104,"x_max":833,"o":"m 460 189 l 743 360 l 460 531 l 460 597 l 833 360 l 460 122 l 460 189 m 104 189 l 388 360 l 104 531 l 104 597 l 478 360 l 104 122 l 104 189 z "},"¼":{"ha":1167,"x_min":110,"x_max":1050,"o":"m 772 1042 l 424 0 l 357 0 l 707 1042 l 772 1042 m 938 0 l 938 136 l 646 136 l 629 189 l 938 643 l 1004 643 l 1004 189 l 1049 189 l 1050 136 l 1004 136 l 1004 0 l 938 0 m 938 189 l 938 546 l 694 189 l 938 189 m 111 961 q 110 1007 111 961 l 261 1040 l 319 1040 l 319 417 l 261 417 l 261 994 l 111 961 z "},"½":{"ha":1197,"x_min":113,"x_max":1118,"o":"m 114 960 q 113 1007 114 960 l 264 1040 l 324 1040 l 324 417 l 264 417 l 264 994 l 114 960 m 976 558 q 903 571 953 571 q 769 529 853 571 l 746 574 q 924 622 849 622 q 1081 536 1039 622 q 1097 451 1097 504 q 1070 344 1097 397 q 1001 241 1043 290 q 907 145 958 192 q 808 53 856 99 l 1113 53 l 1118 1 l 738 1 l 726 53 q 853 175 796 119 q 950 278 910 231 q 1035 453 1035 379 q 976 558 1035 528 m 772 1042 l 424 0 l 357 0 l 707 1042 l 772 1042 z "},"¾":{"ha":1110,"x_min":63,"x_max":1046,"o":"m 933 0 l 933 136 l 642 136 l 625 190 l 933 644 l 1000 644 l 1000 190 l 1044 190 l 1046 136 l 1000 136 l 1000 0 l 933 0 m 174 468 q 367 604 367 468 q 231 719 367 711 q 160 721 193 721 l 160 764 l 197 764 q 236 763 217 764 q 346 833 308 775 q 363 886 363 858 q 258 988 363 988 q 108 947 189 988 l 92 993 q 256 1040 181 1040 q 379 1007 332 1040 q 426 906 426 974 q 315 753 426 800 q 431 607 431 726 q 363 462 431 507 q 179 417 294 417 q 63 432 117 417 l 78 481 q 174 468 118 468 m 772 1042 l 424 0 l 357 0 l 707 1042 l 772 1042 m 933 190 l 933 547 l 690 190 l 933 190 z "},"¿":{"ha":694,"x_min":117,"x_max":611,"o":"m 611 -192 q 372 -278 494 -278 q 363 -278 368 -278 q 185 -219 254 -278 q 117 -72 117 -161 q 158 44 117 -11 q 300 201 200 100 q 435 517 435 333 l 497 517 q 388 195 497 311 q 256 47 278 79 q 207 -72 207 -15 q 251 -167 207 -129 q 368 -206 294 -206 q 579 -137 479 -206 l 611 -192 m 463 742 q 515 686 515 742 q 501 642 515 658 q 458 626 486 626 q 410 686 410 626 q 424 726 410 711 q 463 742 439 742 z "},"À":{"ha":953,"x_min":63,"x_max":863,"o":"m 669 257 l 242 257 l 153 0 l 63 0 l 414 972 l 499 972 l 863 0 l 761 0 l 669 257 m 265 326 l 644 326 l 451 867 l 265 326 m 435 1036 l 271 1242 l 354 1251 l 499 1047 l 435 1036 z "},"Á":{"ha":953,"x_min":63,"x_max":863,"o":"m 761 0 l 863 0 l 499 972 l 414 972 l 63 0 l 153 0 l 242 257 l 669 257 l 761 0 m 451 867 l 644 326 l 265 326 l 451 867 m 664 1242 l 499 1036 l 436 1047 l 581 1251 l 664 1242 z "},"Â":{"ha":953,"x_min":63,"x_max":863,"o":"m 669 257 l 242 257 l 153 0 l 63 0 l 414 972 l 499 972 l 863 0 l 761 0 l 669 257 m 265 326 l 644 326 l 451 867 l 265 326 m 633 1042 l 447 1226 l 264 1042 l 217 1082 l 449 1306 q 549 1207 513 1242 q 628 1131 586 1172 q 681 1082 671 1090 l 633 1042 z "},"Ã":{"ha":953,"x_min":63,"x_max":863,"o":"m 669 257 l 242 257 l 153 0 l 63 0 l 414 972 l 499 972 l 863 0 l 761 0 l 669 257 m 265 326 l 644 326 l 451 867 l 265 326 m 353 1090 q 269 1040 279 1090 l 222 1050 q 346 1139 242 1139 q 489 1117 397 1139 q 608 1094 581 1094 q 650 1099 636 1094 q 682 1149 672 1106 l 731 1139 q 650 1043 711 1051 q 617 1042 639 1042 q 500 1066 594 1042 q 353 1090 406 1090 z "},"Ä":{"ha":953,"x_min":63,"x_max":863,"o":"m 669 257 l 242 257 l 153 0 l 63 0 l 414 972 l 499 972 l 863 0 l 761 0 l 669 257 m 265 326 l 644 326 l 451 867 l 265 326 m 315 1042 q 302 1042 315 1042 q 276 1058 290 1042 q 263 1099 263 1074 q 277 1138 263 1124 q 316 1153 292 1153 q 355 1138 340 1153 q 369 1097 369 1124 q 354 1056 369 1069 q 315 1042 339 1042 m 613 1042 q 601 1042 613 1042 q 576 1058 589 1042 q 563 1099 563 1074 q 576 1138 563 1124 q 614 1153 590 1153 q 669 1097 669 1153 q 653 1056 669 1069 q 613 1042 638 1042 z "},"Å":{"ha":953,"x_min":63,"x_max":863,"o":"m 669 257 l 242 257 l 153 0 l 63 0 l 414 972 l 499 972 l 863 0 l 761 0 l 669 257 m 265 326 l 644 326 l 451 867 l 265 326 m 468 1042 q 444 1042 468 1042 q 385 1066 419 1042 q 350 1144 350 1090 q 385 1231 350 1199 q 468 1263 419 1263 q 551 1238 517 1263 q 585 1160 585 1213 q 551 1074 585 1107 q 468 1042 517 1042 m 467 1224 q 453 1224 467 1224 q 419 1202 439 1224 q 399 1148 399 1181 q 419 1098 399 1115 q 467 1081 439 1081 q 516 1101 496 1081 q 536 1155 536 1122 q 516 1206 536 1188 q 467 1224 496 1224 z "},"Æ":{"ha":946,"x_min":78,"x_max":893,"o":"m 886 0 l 485 0 l 485 257 l 260 257 l 168 0 l 78 0 l 443 972 l 865 972 l 858 889 l 579 889 l 579 524 l 829 524 l 822 440 l 579 440 l 579 83 l 893 83 l 886 0 m 485 326 l 485 883 l 285 326 l 485 326 z "},"Ç":{"ha":822,"x_min":90,"x_max":767,"o":"m 375 -164 q 455 -119 435 -144 q 477 -77 475 -94 q 479 -46 479 -60 q 471 -6 479 -32 l 469 -6 q 219 75 314 -6 q 90 440 90 185 q 212 835 90 696 q 528 975 333 975 q 714 932 636 975 q 760 899 743 917 l 760 697 l 690 693 l 683 869 q 535 897 613 897 q 281 782 378 897 q 185 444 185 667 q 286 133 185 222 q 479 71 356 71 q 638 89 558 71 q 747 124 718 107 l 767 56 q 553 0 701 14 l 522 -3 q 529 -39 529 -24 q 503 -121 529 -85 q 389 -193 463 -175 l 375 -164 z "},"È":{"ha":658,"x_min":63,"x_max":596,"o":"m 561 889 l 157 889 l 157 524 l 532 524 l 525 440 l 157 440 l 157 83 l 596 83 l 589 0 l 63 0 l 63 972 l 568 972 l 561 889 m 303 1035 l 139 1240 l 222 1250 l 367 1046 l 303 1035 z "},"É":{"ha":658,"x_min":63,"x_max":596,"o":"m 568 972 l 63 972 l 63 0 l 589 0 l 596 83 l 157 83 l 157 440 l 525 440 l 532 524 l 157 524 l 157 889 l 561 889 l 568 972 m 535 1240 l 369 1035 l 307 1046 l 451 1250 l 535 1240 z "},"Ê":{"ha":661,"x_min":63,"x_max":596,"o":"m 561 889 l 157 889 l 157 524 l 532 524 l 525 440 l 157 440 l 157 83 l 596 83 l 589 0 l 63 0 l 63 972 l 568 972 l 561 889 m 504 1040 l 318 1225 l 135 1040 l 88 1081 l 319 1304 q 420 1206 383 1240 q 499 1130 457 1171 q 551 1081 542 1089 l 504 1040 z "},"Ë":{"ha":658,"x_min":63,"x_max":596,"o":"m 561 889 l 157 889 l 157 524 l 532 524 l 525 440 l 157 440 l 157 83 l 596 83 l 589 0 l 63 0 l 63 972 l 568 972 l 561 889 m 174 1042 q 162 1042 174 1042 q 136 1058 150 1042 q 122 1099 122 1074 q 137 1138 122 1124 q 176 1153 151 1153 q 215 1138 200 1153 q 229 1097 229 1124 q 214 1056 229 1069 q 174 1042 199 1042 m 473 1042 q 461 1042 473 1042 q 435 1058 449 1042 q 422 1099 422 1074 q 436 1138 422 1124 q 474 1153 450 1153 q 529 1097 529 1153 q 513 1056 529 1069 q 473 1042 497 1042 z "},"Ì":{"ha":483,"x_min":35,"x_max":358,"o":"m 199 1035 l 35 1240 l 118 1250 l 263 1046 l 199 1035 m 358 0 l 97 0 l 97 67 l 181 76 l 181 894 l 104 904 l 104 972 l 351 972 l 351 904 l 275 894 l 275 76 l 358 67 l 358 0 z "},"Í":{"ha":483,"x_min":97,"x_max":424,"o":"m 424 1240 l 258 1035 l 196 1046 l 340 1250 l 424 1240 m 358 67 l 275 76 l 275 894 l 351 904 l 351 972 l 104 972 l 104 904 l 181 894 l 181 76 l 97 67 l 97 0 l 358 0 l 358 67 z "},"Î":{"ha":483,"x_min":-1,"x_max":463,"o":"m 358 0 l 97 0 l 97 67 l 181 76 l 181 894 l 104 904 l 104 972 l 351 972 l 351 904 l 275 894 l 275 76 l 358 67 l 358 0 m 415 1001 l 229 1186 l 46 1001 l -1 1042 l 231 1265 q 331 1167 294 1201 q 410 1091 368 1132 q 463 1042 453 1050 l 415 1001 z "},"Ï":{"ha":483,"x_min":26,"x_max":433,"o":"m 78 1040 q 66 1040 78 1040 q 40 1056 54 1040 q 26 1097 26 1072 q 41 1137 26 1122 q 80 1151 56 1151 q 119 1137 104 1151 q 133 1095 133 1122 q 118 1054 133 1068 q 78 1040 103 1040 m 377 1040 q 365 1040 377 1040 q 340 1056 353 1040 q 326 1097 326 1072 q 340 1137 326 1122 q 378 1151 354 1151 q 433 1096 433 1151 q 417 1054 433 1068 q 377 1040 401 1040 m 358 0 l 97 0 l 97 67 l 181 76 l 181 894 l 104 904 l 104 972 l 351 972 l 351 904 l 275 894 l 275 76 l 358 67 l 358 0 z "},"Ð":{"ha":917,"x_min":111,"x_max":826,"o":"m 163 536 l 163 972 l 413 972 q 794 728 704 972 q 826 494 826 639 q 794 249 826 349 q 704 94 763 150 q 563 19 646 39 q 378 0 481 0 l 163 0 l 163 497 l 111 497 l 111 536 l 163 536 m 257 497 l 257 76 l 371 76 q 508 89 443 76 q 732 501 732 128 q 633 811 732 711 q 406 896 550 896 l 257 896 l 257 536 l 496 536 l 496 497 l 257 497 z "},"Ñ":{"ha":938,"x_min":100,"x_max":836,"o":"m 735 0 l 181 847 l 188 0 l 100 0 l 100 972 l 201 972 l 754 125 l 749 972 l 836 972 l 836 0 l 735 0 m 379 1089 q 296 1039 306 1089 l 249 1049 q 372 1139 268 1139 q 515 1116 424 1139 q 635 1093 607 1093 q 676 1097 663 1093 q 708 1147 699 1104 l 757 1138 q 675 1042 738 1050 q 643 1040 665 1040 q 526 1065 621 1040 q 379 1089 432 1089 z "},"Ò":{"ha":1000,"x_min":90,"x_max":910,"o":"m 500 978 q 910 483 910 978 q 793 126 910 257 q 500 -6 676 -6 q 210 97 313 -6 q 90 465 90 219 q 208 844 90 711 q 500 978 325 978 m 278 164 q 500 78 354 78 q 726 187 638 78 q 815 500 815 296 q 722 807 815 704 q 500 894 644 894 q 274 785 364 894 q 185 470 185 675 q 278 164 185 265 m 461 1035 l 297 1240 l 381 1250 l 525 1046 l 461 1035 z "},"Ó":{"ha":1000,"x_min":90,"x_max":910,"o":"m 910 483 q 500 978 806 857 q 208 844 325 978 q 90 465 90 711 q 210 97 90 219 q 500 -6 313 -6 q 793 126 676 -6 q 910 483 910 257 m 185 470 q 185 573 185 470 q 274 785 185 675 q 500 894 364 894 q 722 807 644 894 q 815 500 815 704 q 726 187 815 296 q 500 78 638 78 q 278 164 354 78 q 185 470 185 265 m 694 1240 l 529 1035 l 467 1046 l 611 1250 l 694 1240 z "},"Ô":{"ha":1000,"x_min":90,"x_max":910,"o":"m 500 978 q 910 483 910 978 q 793 126 910 257 q 500 -6 676 -6 q 210 97 313 -6 q 90 465 90 219 q 208 844 90 711 q 500 978 325 978 m 278 164 q 500 78 354 78 q 726 187 638 78 q 815 500 815 296 q 722 807 815 704 q 500 894 644 894 q 274 785 364 894 q 185 470 185 675 q 278 164 185 265 m 690 1040 l 504 1225 l 321 1040 l 274 1081 l 506 1304 q 606 1206 569 1240 q 685 1130 643 1171 q 738 1081 728 1089 l 690 1040 z "},"Õ":{"ha":1000,"x_min":90,"x_max":910,"o":"m 500 978 q 910 483 910 978 q 793 126 910 257 q 500 -6 676 -6 q 210 97 313 -6 q 90 465 90 219 q 208 844 90 711 q 500 978 325 978 m 278 164 q 500 78 354 78 q 726 187 638 78 q 815 500 815 296 q 722 807 815 704 q 500 894 644 894 q 274 785 364 894 q 185 470 185 675 q 278 164 185 265 m 381 1106 q 297 1056 307 1106 l 250 1065 q 374 1156 269 1156 q 517 1133 425 1156 q 636 1110 608 1110 q 678 1114 664 1110 q 710 1164 700 1121 l 758 1154 q 678 1058 739 1067 q 644 1057 667 1057 q 528 1081 622 1057 q 381 1106 433 1106 z "},"Ö":{"ha":1000,"x_min":90,"x_max":910,"o":"m 500 978 q 910 483 910 978 q 793 126 910 257 q 500 -6 676 -6 q 210 97 313 -6 q 90 465 90 219 q 208 844 90 711 q 500 978 325 978 m 278 164 q 500 78 354 78 q 726 187 638 78 q 815 500 815 296 q 722 807 815 704 q 500 894 644 894 q 274 785 364 894 q 185 470 185 675 q 278 164 185 265 m 351 1042 q 339 1042 351 1042 q 313 1058 326 1042 q 299 1099 299 1074 q 313 1138 299 1124 q 352 1153 328 1153 q 391 1138 376 1153 q 406 1097 406 1124 q 390 1056 406 1069 q 351 1042 375 1042 m 649 1042 q 637 1042 649 1042 q 612 1058 625 1042 q 599 1099 599 1074 q 613 1138 599 1124 q 650 1153 626 1153 q 706 1097 706 1153 q 690 1056 706 1069 q 649 1042 674 1042 z "},"×":{"ha":878,"x_min":160,"x_max":718,"o":"m 439 193 l 217 -29 l 160 28 l 382 250 l 160 472 l 217 529 l 439 307 l 661 529 l 718 472 l 496 250 l 718 28 l 661 -29 l 439 193 z "},"Ø":{"ha":1007,"x_min":97,"x_max":917,"o":"m 189 128 q 97 483 97 254 q 215 844 97 711 q 507 978 332 978 q 789 881 689 978 l 863 972 l 903 940 l 824 842 q 917 488 917 718 q 800 126 917 257 q 507 -6 683 -6 q 224 90 325 -6 l 153 0 l 113 32 l 189 128 m 251 206 l 731 806 l 729 807 q 507 894 651 894 q 281 785 371 894 q 192 492 192 675 q 251 206 192 310 m 283 163 q 507 78 363 78 q 733 187 644 78 q 822 486 822 296 q 802 665 822 603 q 761 763 782 728 l 283 164 l 283 163 z "},"Ù":{"ha":847,"x_min":63,"x_max":764,"o":"m 764 972 l 764 417 q 661 90 764 200 q 415 -6 572 -6 q 174 69 257 -6 q 63 417 63 171 l 63 972 l 157 972 l 157 418 q 240 133 157 217 q 421 71 303 71 q 656 256 597 71 q 676 418 676 321 l 676 972 l 764 972 m 400 1036 l 236 1242 l 319 1251 l 464 1047 l 400 1036 z "},"Ú":{"ha":847,"x_min":63,"x_max":764,"o":"m 676 972 l 676 418 q 605 154 676 238 q 418 71 533 71 q 240 133 303 71 q 157 418 157 217 l 157 972 l 63 972 l 63 417 q 174 69 63 171 q 421 -6 257 -6 q 736 221 658 -6 q 764 417 764 301 l 764 972 l 676 972 m 603 1242 l 438 1036 l 375 1047 l 519 1251 l 603 1242 z "},"Û":{"ha":847,"x_min":63,"x_max":764,"o":"m 764 972 l 764 417 q 661 90 764 200 q 415 -6 572 -6 q 174 69 257 -6 q 63 417 63 171 l 63 972 l 157 972 l 157 418 q 240 133 157 217 q 421 71 303 71 q 656 256 597 71 q 676 418 676 321 l 676 972 l 764 972 m 614 1042 l 428 1226 l 244 1042 l 197 1082 l 429 1306 q 530 1207 493 1242 q 609 1131 567 1172 q 661 1082 651 1090 l 614 1042 z "},"Ü":{"ha":847,"x_min":63,"x_max":764,"o":"m 764 972 l 764 417 q 661 90 764 200 q 415 -6 572 -6 q 174 69 257 -6 q 63 417 63 171 l 63 972 l 157 972 l 157 418 q 240 133 157 217 q 421 71 303 71 q 656 256 597 71 q 676 418 676 321 l 676 972 l 764 972 m 272 1042 q 259 1042 272 1042 q 233 1058 247 1042 q 219 1099 219 1074 q 234 1138 219 1124 q 273 1153 249 1153 q 312 1138 297 1153 q 326 1097 326 1124 q 311 1056 326 1069 q 272 1042 296 1042 m 570 1042 q 558 1042 570 1042 q 533 1058 546 1042 q 519 1099 519 1074 q 533 1138 519 1124 q 571 1153 547 1153 q 626 1097 626 1153 q 610 1056 626 1069 q 570 1042 594 1042 z "},"Ý":{"ha":911,"x_min":63,"x_max":849,"o":"m 164 972 l 63 972 l 421 328 l 421 0 l 508 0 l 508 326 l 849 972 l 751 972 l 464 404 l 164 972 m 658 1240 l 493 1035 l 431 1046 l 575 1250 l 658 1240 z "},"Þ":{"ha":739,"x_min":111,"x_max":649,"o":"m 111 0 l 111 972 l 206 972 l 206 792 l 313 792 q 560 738 483 792 q 649 524 649 675 q 454 215 649 271 q 313 197 392 197 l 206 197 l 206 0 l 111 0 m 206 715 l 206 274 l 306 274 q 492 328 431 274 q 554 508 554 383 q 492 674 554 632 q 306 715 431 715 l 206 715 z "},"ß":{"ha":911,"x_min":67,"x_max":810,"o":"m 75 694 l 133 694 l 133 853 q 175 979 133 935 q 335 1042 233 1042 q 504 986 436 1042 q 588 806 588 919 q 535 682 588 732 q 458 599 482 632 q 433 522 433 565 q 461 453 433 478 q 531 412 489 428 q 622 383 572 396 q 713 349 671 369 q 782 292 754 328 q 810 194 810 257 q 742 48 810 101 q 546 -6 675 -6 q 422 8 483 -6 q 328 44 360 21 l 360 118 q 490 78 392 92 q 553 74 521 74 q 672 104 624 74 q 719 185 719 135 q 692 260 719 236 q 622 300 664 285 q 531 328 581 315 q 440 362 482 340 q 371 418 399 383 q 343 502 343 453 q 356 578 343 551 q 388 628 368 604 q 429 676 407 651 q 472 735 451 701 q 501 803 501 769 q 486 864 501 836 q 400 949 460 919 q 338 964 369 964 q 281 950 307 964 q 224 829 224 917 l 224 0 l 133 0 l 133 621 l 67 621 l 75 694 z "},"à":{"ha":642,"x_min":56,"x_max":586,"o":"m 71 619 q 336 699 222 694 q 476 676 426 699 q 556 612 525 653 q 586 497 586 571 l 586 0 l 496 0 l 496 53 q 251 -6 306 -6 q 247 -6 249 -6 q 76 71 122 -6 q 58 125 60 99 q 56 169 56 151 q 94 259 56 219 q 188 313 133 299 q 496 354 279 336 l 496 467 q 338 618 496 618 q 96 553 226 618 l 71 619 m 140 158 q 278 58 140 58 q 496 106 388 58 l 496 304 q 228 257 279 274 q 140 158 140 229 m 319 826 l 156 1032 l 239 1042 l 383 838 l 319 826 z "},"á":{"ha":642,"x_min":56,"x_max":586,"o":"m 496 53 l 496 0 l 586 0 l 586 497 q 483 672 586 624 q 363 699 428 699 q 186 668 264 699 q 71 619 108 638 l 96 553 q 338 618 226 618 q 496 467 496 618 l 496 354 q 226 322 282 336 q 143 294 169 308 q 64 211 88 267 q 56 170 56 189 q 58 125 56 151 q 76 71 60 99 q 271 -6 122 -6 q 496 53 371 -6 m 496 106 q 272 58 388 58 q 142 140 156 58 q 140 168 140 150 q 161 217 140 186 q 262 265 182 249 q 496 304 342 282 l 496 106 m 536 1032 l 371 826 l 308 838 l 453 1042 l 536 1032 z "},"â":{"ha":642,"x_min":56,"x_max":586,"o":"m 71 619 q 336 699 222 694 q 476 676 426 699 q 556 612 525 653 q 586 497 586 571 l 586 0 l 496 0 l 496 53 q 251 -6 306 -6 q 247 -6 249 -6 q 76 71 122 -6 q 58 125 60 99 q 56 169 56 151 q 94 259 56 219 q 188 313 133 299 q 496 354 279 336 l 496 467 q 338 618 496 618 q 96 553 226 618 l 71 619 m 140 158 q 278 58 140 58 q 496 106 388 58 l 496 304 q 228 257 279 274 q 140 158 140 229 m 531 793 l 344 978 l 161 793 l 114 833 l 346 1057 q 447 958 410 993 q 526 883 483 924 q 578 833 568 842 l 531 793 z "},"ã":{"ha":642,"x_min":56,"x_max":586,"o":"m 71 619 q 336 699 222 694 q 476 676 426 699 q 556 612 525 653 q 586 497 586 571 l 586 0 l 496 0 l 496 53 q 251 -6 306 -6 q 247 -6 249 -6 q 76 71 122 -6 q 58 125 60 99 q 56 169 56 151 q 94 259 56 219 q 188 313 133 299 q 496 354 279 336 l 496 467 q 338 618 496 618 q 96 553 226 618 l 71 619 m 140 158 q 278 58 140 58 q 496 106 388 58 l 496 304 q 228 257 279 274 q 140 158 140 229 m 208 860 q 125 810 135 860 l 78 819 q 201 908 97 908 q 344 886 253 908 q 464 864 436 864 q 506 868 492 864 q 538 918 528 875 l 586 908 q 506 813 567 821 q 472 811 494 811 q 356 835 450 811 q 208 860 261 860 z "},"ä":{"ha":642,"x_min":56,"x_max":586,"o":"m 71 619 q 336 699 222 694 q 476 676 426 699 q 556 612 525 653 q 586 497 586 571 l 586 0 l 496 0 l 496 53 q 251 -6 306 -6 q 247 -6 249 -6 q 76 71 122 -6 q 58 125 60 99 q 56 169 56 151 q 94 259 56 219 q 188 313 133 299 q 496 354 279 336 l 496 467 q 338 618 496 618 q 96 553 226 618 l 71 619 m 140 158 q 278 58 140 58 q 496 106 388 58 l 496 304 q 228 257 279 274 q 140 158 140 229 m 188 792 q 176 792 188 792 q 150 808 164 792 q 136 849 136 824 q 151 888 136 874 q 190 903 165 903 q 228 888 214 903 q 243 847 243 874 q 228 806 243 819 q 188 792 213 792 m 487 792 q 475 792 487 792 q 449 808 463 792 q 436 849 436 824 q 450 888 436 874 q 488 903 464 903 q 543 847 543 903 q 527 806 543 819 q 487 792 511 792 z "},"å":{"ha":642,"x_min":56,"x_max":586,"o":"m 71 619 q 336 699 222 694 q 476 676 426 699 q 556 612 525 653 q 586 497 586 571 l 586 0 l 496 0 l 496 53 q 251 -6 306 -6 q 247 -6 249 -6 q 76 71 122 -6 q 58 125 60 99 q 56 169 56 151 q 94 259 56 219 q 188 313 133 299 q 496 354 279 336 l 496 467 q 338 618 496 618 q 96 553 226 618 l 71 619 m 140 158 q 278 58 140 58 q 496 106 388 58 l 496 304 q 228 257 279 274 q 140 158 140 229 m 361 813 q 337 813 361 813 q 278 837 313 813 q 243 915 243 861 q 278 1001 243 969 q 361 1033 313 1033 q 444 1008 410 1033 q 478 931 478 983 q 444 845 478 878 q 361 813 410 813 m 360 994 q 346 994 360 994 q 312 973 332 994 q 292 919 292 951 q 312 869 292 886 q 360 851 332 851 q 409 872 389 851 q 429 926 429 893 q 409 976 429 958 q 360 994 389 994 z "},"æ":{"ha":1011,"x_min":56,"x_max":953,"o":"m 451 319 q 685 75 451 75 q 864 101 783 75 q 894 113 886 108 l 915 39 q 739 -3 867 10 q 671 -6 703 -6 q 478 44 553 -6 q 253 -6 360 -6 q 76 71 122 -6 q 58 125 60 99 q 56 169 56 151 q 94 259 56 219 q 192 314 133 299 q 361 339 250 329 q 446 588 367 492 q 428 597 440 590 q 338 618 397 618 q 96 553 226 618 l 71 619 q 336 699 222 694 q 518 651 456 699 q 681 700 604 700 q 811 678 758 700 q 951 424 951 618 q 949 365 951 396 l 453 365 q 451 319 451 343 m 697 614 q 510 519 586 614 q 461 417 476 479 l 868 417 q 869 452 869 425 q 851 519 869 479 q 750 607 821 592 q 697 614 725 614 m 433 83 q 388 157 410 111 q 361 285 365 203 q 222 255 267 269 q 158 213 176 240 q 140 168 140 186 q 143 132 140 150 q 285 58 156 58 q 433 83 349 58 z "},"ç":{"ha":679,"x_min":69,"x_max":624,"o":"m 281 -164 q 360 -119 340 -144 q 383 -77 381 -94 q 385 -46 385 -60 q 376 -6 385 -32 q 100 151 175 -6 q 69 317 69 215 q 169 602 69 503 q 425 701 268 701 q 531 688 475 701 q 618 647 588 675 l 618 465 l 550 456 l 543 601 q 426 619 486 619 q 233 542 306 619 q 160 322 160 464 q 389 75 160 75 q 578 106 481 75 q 601 114 597 111 l 624 39 q 540 12 596 22 q 460 -1 483 1 q 428 -4 438 -3 q 435 -39 435 -25 q 408 -121 435 -85 q 294 -193 368 -175 l 281 -164 z "},"è":{"ha":717,"x_min":76,"x_max":668,"o":"m 167 319 q 400 75 167 75 q 581 101 499 75 q 610 113 601 108 l 631 39 q 454 -3 582 10 q 378 -6 418 -6 q 183 53 261 -6 q 76 317 76 132 q 173 601 76 501 q 407 700 269 700 q 614 611 544 700 q 667 424 667 540 q 664 365 667 396 l 168 365 q 167 342 167 354 l 167 319 m 413 614 q 265 562 326 614 q 181 428 204 510 l 585 428 q 465 607 578 582 q 413 614 440 614 m 369 826 l 206 1032 l 289 1042 l 433 838 l 369 826 z "},"é":{"ha":717,"x_min":76,"x_max":668,"o":"m 664 365 q 667 431 667 396 q 614 611 667 540 q 407 700 544 700 q 173 601 269 700 q 76 317 76 501 q 183 53 76 132 q 373 -6 261 -6 q 586 22 485 -6 q 631 39 614 29 l 610 113 q 501 83 568 92 q 397 75 433 75 q 167 319 167 75 l 167 342 q 168 365 167 354 l 664 365 m 181 428 q 265 562 204 510 q 413 614 326 614 q 465 607 440 614 q 585 428 578 582 l 181 428 m 621 1032 l 456 826 l 393 838 l 538 1042 l 621 1032 z "},"ê":{"ha":717,"x_min":76,"x_max":668,"o":"m 167 319 q 400 75 167 75 q 581 101 499 75 q 610 113 601 108 l 631 39 q 454 -3 582 10 q 378 -6 418 -6 q 183 53 261 -6 q 76 317 76 132 q 173 601 76 501 q 407 700 269 700 q 614 611 544 700 q 667 424 667 540 q 664 365 667 396 l 168 365 q 167 342 167 354 l 167 319 m 413 614 q 265 562 326 614 q 181 428 204 510 l 585 428 q 465 607 578 582 q 413 614 440 614 m 590 793 l 404 978 l 221 793 l 174 833 l 406 1057 q 506 958 469 993 q 585 883 543 924 q 638 833 628 842 l 590 793 z "},"ë":{"ha":718,"x_min":76,"x_max":668,"o":"m 167 319 q 400 75 167 75 q 581 101 499 75 q 610 113 601 108 l 631 39 q 454 -3 582 10 q 378 -6 418 -6 q 183 53 261 -6 q 76 317 76 132 q 173 601 76 501 q 407 700 269 700 q 614 611 544 700 q 667 424 667 540 q 664 365 667 396 l 168 365 q 167 342 167 354 l 167 319 m 413 614 q 265 562 326 614 q 181 428 204 510 l 585 428 q 465 607 578 582 q 413 614 440 614 m 555 792 q 543 792 555 792 q 517 808 531 792 q 504 849 504 824 q 518 888 504 874 q 556 903 532 903 q 611 847 611 903 q 595 806 611 819 q 555 792 579 792 m 256 792 q 244 792 256 792 q 218 808 232 792 q 204 849 204 824 q 219 888 204 874 q 258 903 233 903 q 297 888 282 903 q 311 847 311 874 q 296 806 311 819 q 256 792 281 792 z "},"ì":{"ha":303,"x_min":-42,"x_max":203,"o":"m 203 701 l 203 0 l 113 0 l 113 694 l 203 701 m 122 826 l -42 1032 l 42 1042 l 186 838 l 122 826 z "},"í":{"ha":303,"x_min":113,"x_max":356,"o":"m 113 694 l 113 0 l 203 0 l 203 701 l 113 694 m 356 1032 l 190 826 l 128 838 l 272 1042 l 356 1032 z "},"î":{"ha":303,"x_min":-71,"x_max":393,"o":"m 203 701 l 203 0 l 113 0 l 113 694 l 203 701 m 346 793 l 160 978 l -24 793 l -71 833 l 161 1057 q 262 958 225 993 q 341 883 299 924 q 393 833 383 842 l 346 793 z "},"ï":{"ha":303,"x_min":-49,"x_max":358,"o":"m 203 701 l 203 0 l 113 0 l 113 694 l 203 701 m 3 792 q -9 792 3 792 q -35 808 -21 792 q -49 849 -49 824 q -34 888 -49 874 q 5 903 -19 903 q 44 888 29 903 q 58 847 58 874 q 43 806 58 819 q 3 792 28 792 m 302 792 q 290 792 302 792 q 265 808 278 792 q 251 849 251 824 q 265 888 251 874 q 303 903 279 903 q 358 847 358 903 q 342 806 358 819 q 302 792 326 792 z "},"ð":{"ha":868,"x_min":104,"x_max":764,"o":"m 182 1042 q 343 968 268 1007 l 432 1085 l 467 1057 l 382 947 q 447 908 403 935 q 551 828 490 881 q 764 375 764 647 q 670 91 764 188 q 424 -6 576 -6 q 131 178 204 -6 q 104 331 104 240 q 199 603 104 506 q 436 700 294 700 q 564 671 513 700 q 586 657 575 664 q 343 897 510 794 l 240 763 l 206 790 l 304 918 q 160 978 239 953 l 182 1042 m 649 499 q 439 619 565 619 q 264 545 333 619 q 194 342 194 471 q 260 144 194 213 q 431 75 326 75 q 602 147 536 75 q 674 356 668 218 q 653 503 674 424 l 649 499 z "},"ñ":{"ha":669,"x_min":69,"x_max":608,"o":"m 160 618 q 357 699 264 694 q 488 678 442 699 q 563 619 533 657 q 593 511 593 581 l 593 0 l 503 0 l 503 488 q 481 567 503 539 q 344 618 436 618 q 160 561 257 614 l 160 0 l 69 0 l 69 694 l 160 701 l 160 618 m 231 879 q 147 829 157 879 l 100 839 q 224 928 119 928 q 367 906 275 928 q 486 883 458 883 q 528 888 514 883 q 560 938 550 894 l 608 928 q 528 832 589 840 q 494 831 517 831 q 378 855 472 831 q 231 879 283 879 z "},"ò":{"ha":800,"x_min":71,"x_max":731,"o":"m 97 178 q 71 333 71 244 q 167 602 71 504 q 407 700 263 700 q 706 517 633 700 q 731 361 731 450 q 635 92 731 190 q 394 -6 539 -6 q 97 178 168 -6 m 161 343 q 161 279 161 343 q 226 145 161 215 q 397 75 292 75 q 571 149 501 75 q 640 351 640 224 q 574 549 640 479 q 404 619 508 619 q 231 545 300 619 q 161 343 161 471 m 389 826 l 225 1032 l 308 1042 l 453 838 l 389 826 z "},"ó":{"ha":800,"x_min":71,"x_max":731,"o":"m 167 72 q 394 -6 250 -6 q 635 92 539 -6 q 731 363 731 190 q 635 622 731 535 q 407 700 551 700 q 167 602 263 700 q 71 332 71 504 q 167 72 71 160 m 161 343 q 161 407 161 343 q 231 545 161 471 q 404 619 300 619 q 574 549 508 619 q 640 351 640 479 q 571 149 640 224 q 397 75 501 75 q 226 145 292 75 q 161 343 161 215 m 644 1032 l 479 826 l 417 838 l 561 1042 l 644 1032 z "},"ô":{"ha":800,"x_min":71,"x_max":731,"o":"m 97 178 q 71 333 71 244 q 167 602 71 504 q 407 700 263 700 q 706 517 633 700 q 731 361 731 450 q 635 92 731 190 q 394 -6 539 -6 q 97 178 168 -6 m 161 343 q 161 279 161 343 q 226 145 161 215 q 397 75 292 75 q 571 149 501 75 q 640 351 640 224 q 574 549 640 479 q 404 619 508 619 q 231 545 300 619 q 161 343 161 471 m 597 793 l 411 978 l 228 793 l 181 833 l 413 1057 q 513 958 476 993 q 592 883 550 924 q 644 833 635 842 l 597 793 z "},"õ":{"ha":800,"x_min":71,"x_max":731,"o":"m 97 178 q 71 333 71 244 q 167 602 71 504 q 407 700 263 700 q 706 517 633 700 q 731 361 731 450 q 635 92 731 190 q 394 -6 539 -6 q 97 178 168 -6 m 161 343 q 161 279 161 343 q 226 145 161 215 q 397 75 292 75 q 571 149 501 75 q 640 351 640 224 q 574 549 640 479 q 404 619 508 619 q 231 545 300 619 q 161 343 161 471 m 286 860 q 203 810 213 860 l 156 819 q 279 908 175 908 q 422 886 331 908 q 542 864 514 864 q 583 868 569 864 q 615 918 606 875 l 664 908 q 583 813 644 821 q 550 811 572 811 q 433 835 528 811 q 286 860 339 860 z "},"ö":{"ha":800,"x_min":71,"x_max":731,"o":"m 97 178 q 71 333 71 244 q 167 602 71 504 q 407 700 263 700 q 706 517 633 700 q 731 361 731 450 q 635 92 731 190 q 394 -6 539 -6 q 97 178 168 -6 m 161 343 q 161 279 161 343 q 226 145 161 215 q 397 75 292 75 q 571 149 501 75 q 640 351 640 224 q 574 549 640 479 q 404 619 508 619 q 231 545 300 619 q 161 343 161 471 m 252 806 q 240 806 252 806 q 214 822 228 806 q 200 863 200 838 q 215 902 200 888 q 253 917 229 917 q 292 902 278 917 q 307 860 307 888 q 292 819 307 833 q 252 806 276 806 m 551 806 q 539 806 551 806 q 513 822 526 806 q 500 863 500 838 q 514 902 500 888 q 551 917 528 917 q 607 861 607 917 q 591 819 607 833 q 551 806 575 806 z "},"÷":{"ha":1067,"x_min":203,"x_max":833,"o":"m 524 67 q 463 132 463 67 q 479 181 463 163 q 528 200 496 200 q 572 181 560 200 q 583 132 583 163 q 565 84 583 101 q 524 67 547 67 m 524 517 q 463 581 463 517 q 479 631 463 611 q 528 650 496 650 q 572 631 560 650 q 583 581 583 611 q 565 533 583 550 q 524 517 547 517 m 833 403 l 833 322 l 203 322 l 203 403 l 833 403 z "},"ø":{"ha":868,"x_min":104,"x_max":764,"o":"m 182 89 q 104 342 104 181 q 200 602 104 504 q 440 700 296 700 q 638 647 558 700 l 685 706 l 731 675 l 679 611 q 764 355 764 519 q 668 92 764 190 q 436 -6 572 -6 q 222 51 300 -6 l 172 -10 l 128 24 l 182 89 m 281 124 q 437 75 339 75 q 604 149 535 75 q 674 345 674 224 q 618 536 674 467 l 281 124 m 579 576 q 453 619 517 619 q 264 545 333 619 q 194 339 194 471 q 243 165 194 236 l 579 576 z "},"ù":{"ha":718,"x_min":97,"x_max":621,"o":"m 261 89 q 358 78 292 78 q 531 132 425 78 l 531 694 l 621 701 l 621 0 l 531 0 l 531 75 q 321 -4 428 -4 q 128 75 188 -4 q 97 183 97 114 l 97 694 l 188 701 l 188 207 q 261 89 188 121 m 331 826 l 167 1032 l 250 1042 l 394 838 l 331 826 z "},"ú":{"ha":718,"x_min":97,"x_max":621,"o":"m 531 132 q 358 78 425 78 q 264 89 292 78 q 188 207 188 121 l 188 701 l 97 694 l 97 183 q 128 75 97 114 q 321 -4 188 -4 q 531 75 428 -4 l 531 0 l 621 0 l 621 701 l 531 694 l 531 132 m 563 1035 l 397 829 l 335 840 l 479 1044 l 563 1035 z "},"û":{"ha":718,"x_min":97,"x_max":621,"o":"m 261 89 q 358 78 292 78 q 531 132 425 78 l 531 694 l 621 701 l 621 0 l 531 0 l 531 75 q 321 -4 428 -4 q 128 75 188 -4 q 97 183 97 114 l 97 694 l 188 701 l 188 207 q 261 89 188 121 m 550 793 l 364 978 l 181 793 l 133 833 l 365 1057 q 466 958 429 993 q 545 883 503 924 q 597 833 588 842 l 550 793 z "},"ü":{"ha":718,"x_min":97,"x_max":621,"o":"m 261 89 q 358 78 292 78 q 531 132 425 78 l 531 694 l 621 701 l 621 0 l 531 0 l 531 75 q 321 -4 428 -4 q 128 75 188 -4 q 97 183 97 114 l 97 694 l 188 701 l 188 207 q 261 89 188 121 m 213 792 q 201 792 213 792 q 175 808 189 792 q 161 849 161 824 q 176 888 161 874 q 215 903 190 903 q 253 888 239 903 q 268 847 268 874 q 253 806 268 819 q 213 792 238 792 m 512 792 q 500 792 512 792 q 474 808 488 792 q 461 849 461 824 q 475 888 461 874 q 513 903 489 903 q 568 847 568 903 q 552 806 568 819 q 512 792 536 792 z "},"ý":{"ha":797,"x_min":56,"x_max":728,"o":"m 303 0 l 335 0 l 182 -347 l 267 -347 l 728 694 l 631 694 l 364 65 l 157 701 l 56 694 l 303 0 m 586 1032 l 421 826 l 358 838 l 503 1042 l 586 1032 z "},"þ":{"ha":706,"x_min":83,"x_max":636,"o":"m 536 97 q 434 28 490 51 q 340 3 378 6 q 269 0 301 0 q 207 3 238 0 q 174 7 176 7 l 174 -340 l 83 -347 l 83 1035 l 174 1042 l 174 686 q 176 688 175 686 q 312 707 240 707 q 435 695 383 707 q 532 650 488 683 q 636 383 636 569 q 536 97 636 197 m 471 583 q 401 618 439 610 q 313 626 364 626 q 174 603 263 626 l 174 78 q 263 68 213 68 q 472 149 399 68 q 546 375 546 229 q 471 583 546 521 z "},"ÿ":{"ha":797,"x_min":56,"x_max":728,"o":"m 56 694 l 157 701 l 364 65 l 631 694 l 728 694 l 267 -347 l 182 -347 l 335 0 l 303 0 l 56 694 m 247 792 q 234 792 247 792 q 208 808 222 792 q 194 849 194 824 q 209 888 194 874 q 248 903 224 903 q 287 888 272 903 q 301 847 301 874 q 286 806 301 819 q 247 792 271 792 m 545 792 q 533 792 545 792 q 508 808 521 792 q 494 849 494 824 q 508 888 494 874 q 546 903 522 903 q 601 847 601 903 q 585 806 601 819 q 545 792 569 792 z "},"ı":{"ha":357,"x_min":190,"x_max":204,"o":"m 204 694 l 204 0 l 190 0 l 190 694 l 204 694 z "},"Œ":{"ha":992,"x_min":83,"x_max":929,"o":"m 493 -6 q 83 483 83 -6 q 201 844 83 711 q 493 978 318 978 q 568 972 507 978 l 901 972 l 894 889 l 615 889 l 615 524 l 865 524 l 858 440 l 615 440 l 615 83 l 929 83 l 922 0 l 565 0 q 493 -6 515 -6 m 269 164 q 370 97 313 117 q 467 78 428 78 l 521 78 l 521 893 q 493 894 507 894 q 267 785 357 894 q 178 470 178 675 q 269 164 178 265 z "},"œ":{"ha":1108,"x_min":69,"x_max":1060,"o":"m 558 319 q 792 75 558 75 q 972 101 890 75 q 1001 113 993 108 l 1022 39 q 846 -3 974 10 q 778 -6 810 -6 q 581 47 656 -6 q 393 -6 499 -6 q 94 178 167 -6 q 69 333 69 244 q 165 602 69 504 q 394 700 261 700 q 610 640 528 700 q 790 700 749 700 q 796 700 793 700 q 1006 611 936 700 q 1058 424 1058 540 q 1056 365 1058 396 l 560 365 q 558 342 558 354 l 558 319 m 521 108 q 468 332 468 190 q 543 575 468 474 q 419 619 485 619 q 229 545 299 619 q 160 343 160 471 q 226 145 160 215 q 393 75 292 75 q 521 108 464 75 m 804 614 q 657 562 718 614 q 572 428 596 510 l 976 428 q 857 607 969 582 q 804 614 832 614 z "},"Ÿ":{"ha":911,"x_min":63,"x_max":849,"o":"m 464 404 l 751 972 l 849 972 l 508 326 l 508 0 l 421 0 l 421 328 l 63 972 l 164 972 l 464 404 m 317 1042 q 305 1042 317 1042 q 279 1058 293 1042 q 265 1099 265 1074 q 280 1138 265 1124 q 319 1153 294 1153 q 358 1138 343 1153 q 372 1097 372 1124 q 357 1056 372 1069 q 317 1042 342 1042 m 616 1042 q 604 1042 616 1042 q 578 1058 592 1042 q 565 1099 565 1074 q 579 1138 565 1124 q 617 1153 593 1153 q 672 1097 672 1153 q 656 1056 672 1069 q 616 1042 640 1042 z "},"ˆ":{"ha":778,"x_min":161,"x_max":625,"o":"m 578 793 l 392 978 l 208 793 l 161 833 l 393 1057 q 494 958 457 993 q 573 883 531 924 q 625 833 615 842 l 578 793 z "},"˘":{"ha":694,"x_min":139,"x_max":556,"o":"m 153 972 q 178 908 157 935 q 336 844 228 844 q 521 910 475 844 q 542 972 540 938 l 556 972 q 472 856 553 899 q 336 833 428 833 q 165 901 218 833 q 139 972 142 932 l 153 972 z "},"˙":{"ha":363,"x_min":179,"x_max":217,"o":"m 197 874 q 217 853 217 874 q 198 833 217 833 q 179 853 179 833 q 185 867 179 861 q 197 874 190 874 z "},"˚":{"ha":417,"x_min":111,"x_max":346,"o":"m 229 813 q 205 813 229 813 q 146 837 181 813 q 111 915 111 861 q 146 1001 111 969 q 229 1033 181 1033 q 312 1008 278 1033 q 346 931 346 983 q 312 845 346 878 q 229 813 278 813 m 228 994 q 214 994 228 994 q 180 973 200 994 q 160 919 160 951 q 180 869 160 886 q 228 851 200 851 q 277 872 257 851 q 297 926 297 893 q 277 976 297 958 q 228 994 257 994 z "},"˜":{"ha":817,"x_min":169,"x_max":678,"o":"m 300 860 q 217 810 226 860 l 169 819 q 293 908 189 908 q 436 886 344 908 q 556 864 528 864 q 597 868 583 864 q 629 918 619 875 l 678 908 q 597 813 658 821 q 564 811 586 811 q 447 835 542 811 q 300 860 353 860 z "},"–":{"ha":835,"x_min":111,"x_max":742,"o":"m 742 403 l 742 322 l 111 322 l 111 403 l 742 403 z "},"—":{"ha":974,"x_min":111,"x_max":881,"o":"m 881 403 l 881 322 l 111 322 l 111 403 l 881 403 z "},"‘":{"ha":278,"x_min":110,"x_max":171,"o":"m 169 897 l 171 835 l 124 829 q 117 874 124 831 q 110 990 111 918 l 171 997 q 169 949 169 976 l 169 897 z "},"’":{"ha":278,"x_min":110,"x_max":171,"o":"m 110 831 l 111 893 l 111 944 q 110 993 111 972 l 171 997 q 163 880 169 925 q 157 833 157 835 l 110 831 z "},"‚":{"ha":278,"x_min":110,"x_max":171,"o":"m 110 -44 l 111 18 l 111 69 q 110 118 111 97 l 171 122 q 163 5 169 50 q 157 -42 157 -40 l 110 -44 z "},"“":{"ha":417,"x_min":110,"x_max":324,"o":"m 169 897 l 171 835 l 124 829 q 117 874 124 831 q 110 990 111 918 l 171 997 q 169 949 169 976 l 169 897 m 322 897 l 324 835 l 276 829 q 270 874 276 831 q 263 990 264 918 l 324 997 q 322 949 322 976 l 322 897 z "},"”":{"ha":417,"x_min":110,"x_max":324,"o":"m 110 831 l 111 893 l 111 944 q 110 993 111 972 l 171 997 q 163 880 169 925 q 157 833 157 835 l 110 831 m 263 831 l 264 893 l 264 944 q 263 993 264 972 l 324 997 q 316 880 322 925 q 310 833 310 835 l 263 831 z "},"„":{"ha":417,"x_min":110,"x_max":324,"o":"m 110 -44 l 111 18 l 111 69 q 110 118 111 97 l 171 122 q 163 5 169 50 q 157 -42 157 -40 l 110 -44 m 263 -44 l 264 18 l 264 69 q 263 118 264 97 l 324 122 q 316 5 322 50 q 310 -42 310 -40 l 263 -44 z "},"•":{"ha":643,"x_min":143,"x_max":497,"o":"m 157 508 q 143 586 143 543 q 194 721 143 668 q 319 774 244 774 q 447 726 396 774 q 497 594 497 678 q 445 459 497 511 q 319 407 393 407 q 157 508 199 407 z "},"…":{"ha":536,"x_min":40,"x_max":486,"o":"m 85 -11 q 73 -11 85 -11 q 51 3 61 -11 q 40 42 40 17 q 53 82 40 67 q 92 97 67 97 q 138 40 138 97 q 123 3 138 17 q 85 -11 108 -11 m 261 -11 q 215 43 215 -11 q 268 97 215 97 q 314 42 314 97 q 299 3 314 17 q 261 -11 285 -11 m 433 -11 q 388 43 388 -11 q 440 97 388 97 q 486 42 486 97 q 472 3 486 17 q 433 -11 457 -11 z "},"‰":{"ha":1364,"x_min":111,"x_max":1246,"o":"m 800 722 l 250 0 l 167 0 l 717 722 l 800 722 m 125 475 q 111 547 111 507 q 159 672 111 622 q 278 722 207 722 q 444 556 444 722 q 394 437 444 485 q 278 389 344 389 q 125 475 160 389 m 277 669 q 254 669 277 669 q 199 636 231 669 q 167 550 167 603 q 199 469 167 497 q 277 442 231 442 q 356 474 324 442 q 389 560 389 507 q 356 642 389 614 q 277 669 324 669 m 528 79 q 514 153 514 111 q 562 276 514 226 q 681 326 610 326 q 847 160 847 326 q 797 41 847 89 q 681 -7 747 -7 q 528 79 563 -7 m 680 274 q 657 274 680 274 q 601 240 633 274 q 569 154 569 207 q 601 74 569 101 q 680 46 633 46 q 759 78 726 46 q 792 165 792 111 q 759 246 792 218 q 680 274 726 274 m 925 79 q 913 153 913 111 q 960 276 913 226 q 1079 326 1008 326 q 1246 160 1246 326 q 1196 41 1246 89 q 1079 -7 1146 -7 q 925 79 961 -7 m 1079 274 q 1001 240 1033 274 q 968 154 968 207 q 1001 74 968 101 q 1079 46 1033 46 q 1158 78 1125 46 q 1190 165 1190 111 q 1158 246 1190 218 q 1079 274 1125 274 z "},"‹":{"ha":606,"x_min":104,"x_max":478,"o":"m 478 122 l 104 360 l 478 597 l 478 531 l 194 360 l 478 189 l 478 122 z "},"›":{"ha":606,"x_min":104,"x_max":478,"o":"m 104 189 l 388 360 l 104 531 l 104 597 l 478 360 l 104 122 l 104 189 z "},"⁄":{"ha":833,"x_min":156,"x_max":681,"o":"m 681 1040 l 239 -278 l 156 -278 l 597 1040 l 681 1040 z "},"€":{"ha":892,"x_min":74,"x_max":742,"o":"m 128 356 q 126 421 126 385 q 129 493 126 457 l 81 493 l 81 532 l 135 532 q 231 732 157 653 q 501 842 333 842 q 689 799 610 842 q 733 765 717 783 l 697 710 q 630 744 683 725 q 510 764 576 764 q 392 744 444 764 q 229 532 271 699 l 611 532 l 611 493 l 224 493 q 219 421 219 457 q 221 356 219 385 l 611 356 l 611 317 l 226 317 q 303 150 244 213 q 506 69 376 69 q 683 111 604 69 q 710 128 703 121 l 742 69 q 544 -6 688 11 q 500 -7 522 -7 q 336 26 417 -7 q 154 228 211 79 q 132 317 140 268 l 74 317 l 74 356 l 128 356 z "},"™":{"ha":594,"x_min":40,"x_max":531,"o":"m 274 694 l 274 972 l 300 972 l 401 768 l 504 972 l 531 972 l 531 694 l 506 694 l 506 925 l 415 746 l 388 746 l 299 925 l 299 694 l 274 694 m 118 694 l 118 949 l 40 949 l 42 972 l 222 972 l 219 949 l 143 949 l 143 694 l 118 694 z "}}}
